<!-- Generator: Adobe Illustrator 24.0.1, SVG Export Plug-In  -->
<svg version="1.1" xmlns="http://www.w3.org/2000/svg" xmlns:xlink="http://www.w3.org/1999/xlink" x="0px" y="0px"
	 width="665.06px" height="370.54px" viewBox="0 0 665.06 370.54" style="enable-background:new 0 0 665.06 370.54;"
	 xml:space="preserve">
<style type="text/css">
	.st0{fill:#EBEBEB;}
	.st1{fill:#FFFFFF;stroke:#EBEBEB;stroke-miterlimit:10;}
	.st2{fill:#37474F;}
	.st3{fill:#92E3A9;}
	.st4{fill:none;stroke:#EBEBEB;stroke-miterlimit:10;}
	.st5{fill:#A6A6A6;}
	.st6{fill:#FFFFFF;}
	.st7{fill:#DBDBDB;}
	.st8{fill:#EB9481;}
	.st9{fill:#263238;}
	.st10{opacity:0.1;}
	.st11{opacity:0.3;}
	.st12{fill:#FF99BA;}
	.st13{fill:#C95F50;}
	.st14{fill:#455A64;}
	.st15{opacity:0.1;fill:#000102;}
</style>
<defs>
</defs>
<g>
	<g>
		<g>
			<path class="st0" d="M650.02,253.54l-13.12,0.28l-6.66,0.11c-2.23,0.05-4.46,0.04-6.69,0.06l-0.44,0l0-0.45l-0.05-11.19l0-0.5
				l0.5,0l13.24,0.06c4.41,0,8.83,0.11,13.24,0.16l0.28,0l0,0.27c-0.02,1.9-0.09,3.79-0.13,5.65L650.02,253.54z M650.02,253.54
				l-0.14-5.65c-0.05-1.86-0.11-3.7-0.13-5.54l0.27,0.27c-4.41,0.05-8.83,0.16-13.24,0.16l-13.24,0.06l0.5-0.5l-0.05,11.19
				l-0.45-0.45c2.18,0.02,4.36,0.01,6.55,0.06l6.58,0.11L650.02,253.54z"/>
		</g>
		<g>
			<path class="st0" d="M635.25,267.65l-13.12,0.28l-6.66,0.11c-2.23,0.05-4.46,0.04-6.69,0.05l-0.44,0l0-0.45l-0.05-11.19l0-0.5
				l0.5,0l13.24,0.06c4.41,0.01,8.83,0.11,13.24,0.16l0.28,0l0,0.27c-0.02,1.9-0.09,3.79-0.13,5.65L635.25,267.65z M635.25,267.65
				l-0.14-5.65c-0.05-1.86-0.11-3.7-0.13-5.54l0.27,0.27c-4.41,0.05-8.83,0.16-13.24,0.16l-13.24,0.06l0.5-0.5l-0.05,11.19
				l-0.45-0.45c2.18,0.02,4.36,0.01,6.55,0.05l6.58,0.11L635.25,267.65z"/>
		</g>
		<g>
			<path class="st0" d="M664.79,267.65l-13.12,0.28l-6.66,0.11c-2.23,0.05-4.46,0.04-6.69,0.05l-0.44,0l0-0.45l-0.05-11.19l0-0.5
				l0.5,0l13.24,0.06c4.41,0.01,8.83,0.11,13.24,0.16l0.28,0l0,0.27c-0.02,1.9-0.09,3.79-0.13,5.65L664.79,267.65z M664.79,267.65
				l-0.14-5.65c-0.05-1.86-0.11-3.7-0.13-5.54l0.27,0.27c-4.41,0.05-8.83,0.16-13.24,0.16l-13.24,0.06l0.5-0.5l-0.05,11.19
				l-0.45-0.45c2.18,0.02,4.36,0.01,6.55,0.05l6.58,0.11L664.79,267.65z"/>
		</g>
		<g>
			<path class="st0" d="M272.44,120.38l-13.12,0.28l-6.66,0.11c-2.23,0.05-4.46,0.04-6.69,0.06l-0.44,0l0-0.45l-0.05-11.19l0-0.5
				l0.5,0l13.24,0.06c4.41,0,8.83,0.11,13.24,0.16l0.28,0l0,0.27c-0.02,1.9-0.09,3.79-0.13,5.65L272.44,120.38z M272.44,120.38
				l-0.14-5.65c-0.05-1.86-0.11-3.7-0.13-5.54l0.27,0.27c-4.41,0.05-8.83,0.16-13.24,0.16l-13.24,0.06l0.5-0.5l-0.05,11.19
				l-0.45-0.45c2.18,0.02,4.36,0.01,6.55,0.06l6.58,0.11L272.44,120.38z"/>
		</g>
		<g>
			<path class="st0" d="M257.67,134.49l-13.12,0.28l-6.66,0.11c-2.23,0.05-4.46,0.04-6.69,0.06l-0.44,0l0-0.45l-0.05-11.19l0-0.5
				l0.5,0l13.24,0.06c4.41,0,8.83,0.11,13.24,0.16l0.28,0l0,0.27c-0.02,1.9-0.09,3.79-0.13,5.65L257.67,134.49z M257.67,134.49
				l-0.14-5.65c-0.05-1.86-0.11-3.7-0.13-5.54l0.27,0.27c-4.41,0.05-8.83,0.16-13.24,0.16l-13.24,0.06l0.5-0.5l-0.05,11.19
				l-0.45-0.45c2.18,0.02,4.36,0.01,6.55,0.06l6.58,0.11L257.67,134.49z"/>
		</g>
		<g>
			<path class="st0" d="M287.21,134.49l-13.12,0.28l-6.66,0.11c-2.23,0.05-4.46,0.04-6.69,0.06l-0.44,0l0-0.45l-0.05-11.19l0-0.5
				l0.5,0l13.24,0.06c4.41,0,8.83,0.11,13.24,0.16l0.28,0l0,0.27c-0.02,1.9-0.09,3.79-0.13,5.65L287.21,134.49z M287.21,134.49
				l-0.14-5.65c-0.05-1.86-0.11-3.7-0.13-5.54l0.27,0.27c-4.41,0.05-8.83,0.16-13.24,0.16l-13.24,0.06l0.5-0.5l-0.05,11.19
				l-0.45-0.45c2.18,0.02,4.36,0.01,6.55,0.06l6.58,0.11L287.21,134.49z"/>
		</g>
		<g>
			<path class="st0" d="M56.53,194.42L43.4,194.7l-6.66,0.11c-2.23,0.05-4.46,0.04-6.69,0.06l-0.44,0l0-0.45l-0.05-11.19l0-0.5
				l0.5,0l13.24,0.06c4.41,0,8.83,0.11,13.24,0.16l0.28,0l0,0.27c-0.02,1.9-0.09,3.79-0.13,5.65L56.53,194.42z M56.53,194.42
				l-0.14-5.65c-0.05-1.86-0.11-3.7-0.13-5.54l0.27,0.27c-4.41,0.05-8.83,0.16-13.24,0.16l-13.24,0.06l0.5-0.5l-0.05,11.19
				l-0.45-0.45c2.18,0.02,4.36,0.01,6.55,0.06l6.58,0.11L56.53,194.42z"/>
		</g>
		<g>
			<path class="st0" d="M495.51,120.37l-13.12,0.28l-6.66,0.11c-2.23,0.05-4.46,0.04-6.69,0.06l-0.44,0l0-0.45l-0.05-11.19l0-0.5
				l0.5,0l13.24,0.06c4.41,0.01,8.83,0.11,13.24,0.16l0.28,0l0,0.27c-0.02,1.9-0.09,3.79-0.13,5.65L495.51,120.37z M495.51,120.37
				l-0.14-5.65c-0.05-1.86-0.11-3.7-0.13-5.54l0.27,0.27c-4.41,0.05-8.83,0.16-13.24,0.16l-13.24,0.06l0.5-0.5l-0.05,11.19
				l-0.45-0.45c2.18,0.02,4.36,0.01,6.55,0.06l6.58,0.11L495.51,120.37z"/>
		</g>
		<g>
			<path class="st0" d="M648.49,11.69l-13.12,0.28l-6.66,0.11c-2.23,0.05-4.46,0.04-6.69,0.05l-0.44,0l0-0.45L621.51,0.5l0-0.5
				l0.5,0l13.24,0.06c4.41,0.01,8.83,0.11,13.24,0.16l0.28,0l0,0.27c-0.02,1.9-0.09,3.79-0.13,5.65L648.49,11.69z M648.49,11.69
				l-0.14-5.65c-0.05-1.86-0.11-3.7-0.13-5.54l0.27,0.27c-4.41,0.05-8.83,0.16-13.24,0.16L622.01,1l0.5-0.5l-0.05,11.19l-0.45-0.45
				c2.18,0.02,4.36,0.01,6.55,0.06l6.58,0.11L648.49,11.69z"/>
		</g>
		<g>
			<path class="st0" d="M663.26,25.8l-13.12,0.28l-6.66,0.11c-2.23,0.05-4.46,0.04-6.69,0.06l-0.44,0l0-0.45l-0.05-11.19l0-0.5
				l0.5,0l13.24,0.06c4.41,0.01,8.83,0.11,13.24,0.16l0.28,0l0,0.27c-0.02,1.9-0.09,3.79-0.13,5.65L663.26,25.8z M663.26,25.8
				l-0.14-5.65c-0.05-1.86-0.11-3.7-0.13-5.54l0.27,0.27c-4.41,0.05-8.83,0.16-13.24,0.16l-13.24,0.06l0.5-0.5l-0.05,11.19
				l-0.45-0.45c2.18,0.02,4.36,0.01,6.55,0.06l6.58,0.11L663.26,25.8z"/>
		</g>
		<g>
			<path class="st0" d="M26.98,11.7l-13.12,0.28L7.2,12.09c-2.23,0.05-4.46,0.04-6.69,0.05l-0.44,0l0-0.45L0,0.51l0-0.5l0.5,0
				l13.24,0.06c4.41,0,8.83,0.11,13.24,0.16l0.28,0l0,0.27c-0.02,1.9-0.09,3.79-0.13,5.65L26.98,11.7z M26.98,11.7l-0.14-5.65
				c-0.05-1.86-0.11-3.7-0.13-5.54l0.27,0.27c-4.41,0.05-8.83,0.16-13.24,0.16L0.5,1.01L1,0.51L0.95,11.7L0.5,11.26
				c2.18,0.02,4.36,0.01,6.55,0.05l6.58,0.11L26.98,11.7z"/>
		</g>
	</g>
	<g>
		<g>
			<rect x="57.42" y="2.53" class="st1" width="118.54" height="79.88"/>
		</g>
		<g>
			<path class="st2" d="M68.87,8.57c0,1.51-1.22,2.73-2.73,2.73c-1.51,0-2.73-1.22-2.73-2.73c0-1.51,1.22-2.73,2.73-2.73
				C67.65,5.85,68.87,7.07,68.87,8.57z"/>
			<path class="st0" d="M80.02,8.57c0,1.51-1.22,2.73-2.73,2.73c-1.51,0-2.73-1.22-2.73-2.73c0-1.51,1.22-2.73,2.73-2.73
				C78.8,5.85,80.02,7.07,80.02,8.57z"/>
			<path class="st3" d="M91.17,8.57c0,1.51-1.22,2.73-2.73,2.73c-1.51,0-2.73-1.22-2.73-2.73c0-1.51,1.22-2.73,2.73-2.73
				C89.95,5.85,91.17,7.07,91.17,8.57z"/>
		</g>
		<line class="st4" x1="57.42" y1="14.56" x2="175.96" y2="14.56"/>
	</g>
	<g>
		<path class="st0" d="M157.65,107.9c0-1.25,0.17-4.58,0.17-5.99c0-6.08-2.16-8.83-7.83-8.99c-2.67-0.17-4.25-1.75-4.25-4
			c0-2.25,1.58-3.83,4.25-4c5.66-0.25,7.83-2.92,7.83-9.08c0-1.41-0.17-4.75-0.17-5.99c0-8.08,3.41-13.24,16.32-16.07
			c2.58-0.58,4.58,1,4.58,3.41c0,2-1.33,3.08-2.33,3.41c-8.08,2.5-9.24,5.08-9.24,10.74c0,1.67,0.17,4.41,0.17,6.16
			c0,6.49-3.16,9.66-8.66,11.41c5.58,1.83,8.66,4.91,8.66,11.41c0,1.75-0.17,4.5-0.17,6.16c0,5.66,1.17,8.24,9.24,10.74
			c1,0.33,2.33,1.42,2.33,3.41c0,2.42-2,4-4.58,3.42C161.06,121.22,157.65,116.06,157.65,107.9z"/>
		<path class="st0" d="M206.45,69.84c0,1.25-0.17,4.58-0.17,5.99c0,6.16,2.25,8.83,7.91,9.08c2.58,0.17,4.16,1.75,4.16,4
			c0,2.25-1.58,3.83-4.16,4c-5.66,0.17-7.91,2.92-7.91,8.99c0,1.42,0.17,4.75,0.17,5.99c0,8.16-3.41,13.32-16.32,16.16
			c-2.58,0.58-4.58-1-4.58-3.42c0-2,1.33-3.08,2.41-3.41c7.99-2.5,9.16-5.08,9.16-10.74c0-1.67-0.17-4.41-0.17-6.16
			c0-6.5,3.16-9.66,8.66-11.41c-5.58-1.83-8.66-4.91-8.66-11.41c0-1.75,0.17-4.5,0.17-6.16c0-5.66-1.17-8.24-9.16-10.74
			c-1.08-0.33-2.41-1.42-2.41-3.41c0-2.41,2-4,4.58-3.41C203.03,56.6,206.45,61.76,206.45,69.84z"/>
	</g>
	<g>
		<path class="st0" d="M269.84,260.91c1.34,1.4,1.34,3.5,0,4.84c-0.7,0.65-1.51,0.97-2.37,0.97c-0.92,0-1.78-0.32-2.48-0.97
			l-15.12-15.34c-0.16-0.05-0.21-0.16-0.27-0.32c-0.05-0.05-0.16-0.11-0.16-0.11c-0.11-0.16-0.11-0.27-0.16-0.43
			c-0.11-0.05-0.16-0.16-0.16-0.22c-0.05-0.11-0.05-0.27-0.11-0.32c0-0.16-0.11-0.22-0.11-0.27c0-0.16,0-0.27,0-0.38
			c0-0.11-0.05-0.16-0.05-0.32c0-0.05,0.05-0.21,0.05-0.27c0-0.11,0-0.27,0-0.38c0-0.11,0.11-0.16,0.11-0.22
			c0.05-0.16,0.05-0.27,0.11-0.43c0-0.05,0.05-0.05,0.05-0.11c0.11-0.16,0.16-0.38,0.27-0.49c0,0,0-0.11,0.11-0.11
			c0.05-0.11,0.16-0.27,0.32-0.38L265,230.34c1.34-1.29,3.55-1.29,4.84,0c1.34,1.35,1.34,3.5,0,4.84l-12.76,12.86L269.84,260.91z"/>
		<path class="st0" d="M283.57,262.63l13.19-31.38c0.65-1.51,2.37-2.21,3.93-1.56c1.45,0.59,2.15,2.37,1.51,3.82L289,264.95
			c-0.48,1.13-1.61,1.78-2.75,1.78c-0.32,0-0.75-0.05-1.08-0.21C283.62,265.92,282.92,264.14,283.57,262.63z"/>
		<path class="st0" d="M328.24,249.98c0,0,0,0.05-0.05,0.05c-0.11,0.11-0.21,0.27-0.38,0.38l-15.12,15.34
			c-0.65,0.65-1.56,0.97-2.42,0.97c-0.92,0-1.72-0.32-2.42-0.97c-1.34-1.35-1.34-3.44,0-4.84l12.76-12.86l-12.76-12.86
			c-1.34-1.35-1.34-3.5,0-4.84c1.29-1.29,3.5-1.29,4.84,0l15.12,15.34c0.16,0.11,0.27,0.27,0.38,0.38c0.05,0,0.05,0.11,0.05,0.11
			c0.11,0.22,0.22,0.32,0.27,0.49c0,0.05,0.05,0.05,0.05,0.11c0.05,0.16,0.05,0.27,0.16,0.48c0,0.05,0.05,0.05,0.05,0.16
			c0,0.11,0,0.27,0,0.38c0,0.05,0.05,0.22,0.05,0.27c0,0.05-0.05,0.22-0.05,0.27c0,0.16,0,0.27,0,0.43c0,0.05-0.05,0.05-0.05,0.11
			c-0.11,0.21-0.11,0.38-0.16,0.48c0,0.05-0.05,0.05-0.05,0.16C328.46,249.61,328.35,249.77,328.24,249.98z"/>
	</g>
	<path class="st0" d="M544.15,82.64c0,6.8-5.26,12.38-11.95,12.87v0.04h-73.09c-8.38,0-15.17-6.79-15.17-15.17
		c0-7.9,6.04-14.39,13.75-15.1c0.44-13.73,11.7-24.73,25.54-24.73c11.01,0,20.4,6.97,23.99,16.74c2.04-1.03,4.34-1.6,6.78-1.6
		c8.06,0,14.66,6.29,15.14,14.23c0.68-0.11,1.38-0.17,2.1-0.17C538.37,69.74,544.15,75.52,544.15,82.64z"/>
	<g>
		<path class="st0" d="M46.22,177.79c1.2-0.75,2.71-0.71,3.92,0.03c0.33,0.2,0.67,0.39,1.01,0.57c0.35,0.19,0.69,0.36,1.04,0.53
			c1.28,0.6,2.14,1.83,2.18,3.24l0.15,4.83l15.72-0.49l-0.15-4.86c-0.04-1.41,0.75-2.69,1.98-3.36c0.67-0.37,1.32-0.77,1.95-1.2
			c1.17-0.81,2.68-0.95,3.94-0.27l4.25,2.28l7.44-13.87l-4.25-2.28c-1.26-0.67-1.98-2.01-1.95-3.43c0.01-0.77-0.01-1.53-0.08-2.29
			c-0.12-1.41,0.51-2.77,1.7-3.51l4.13-2.56l-8.29-13.37l-4.12,2.55c-1.18,0.73-2.67,0.73-3.85,0c-0.35-0.21-0.7-0.41-1.06-0.61
			c-0.36-0.19-0.73-0.38-1.09-0.55c-1.26-0.59-2.09-1.83-2.13-3.23l-0.15-4.83L52.8,131.6l0.15,4.81c0.04,1.39-0.68,2.69-1.9,3.36
			c-0.73,0.4-1.44,0.84-2.13,1.32c-1.13,0.79-2.62,0.86-3.84,0.21l-4.24-2.28l-7.44,13.87l4.24,2.28c1.26,0.67,1.98,2.01,1.95,3.44
			c-0.02,0.77,0.01,1.53,0.07,2.3c0.12,1.41-0.51,2.77-1.71,3.52l-4.12,2.55l8.29,13.37L46.22,177.79z M49.46,154.49
			c3.04-7.94,12.66-10.84,19.59-5.91c4.72,3.35,6.6,9.63,4.53,15.03c-3.05,7.93-12.64,10.83-19.57,5.91
			C49.29,166.17,47.39,159.89,49.46,154.49z"/>
		<path class="st0" d="M124.32,52.63c0.5-0.86,1.44-1.33,2.43-1.28c0.27,0.01,0.54,0.02,0.81,0.02c0.27,0,0.55-0.01,0.82-0.02
			c0.99-0.05,1.93,0.42,2.42,1.28l1.69,2.93l9.55-5.51l-1.69-2.93c-0.5-0.86-0.45-1.92,0.1-2.75c0.3-0.46,0.57-0.93,0.82-1.42
			c0.45-0.88,1.34-1.45,2.33-1.45h3.37V30.48h-3.37c-0.99,0-1.88-0.57-2.33-1.45c-0.25-0.49-0.52-0.96-0.82-1.42
			c-0.54-0.83-0.59-1.89-0.1-2.75l1.69-2.93l-9.55-5.51l-1.7,2.94c-0.49,0.86-1.43,1.33-2.42,1.28c-0.27-0.01-0.54-0.02-0.81-0.02
			s-0.54,0.01-0.81,0.02c-0.99,0.05-1.94-0.42-2.43-1.28l-1.69-2.93l-9.55,5.51l1.69,2.92c0.5,0.86,0.45,1.92-0.09,2.75
			c-0.3,0.46-0.57,0.94-0.82,1.43c-0.45,0.88-1.34,1.45-2.33,1.45h-3.37V41.5h3.37c0.99,0,1.88,0.57,2.33,1.45
			c0.25,0.49,0.53,0.97,0.82,1.43c0.54,0.83,0.59,1.89,0.09,2.75l-1.69,2.92l9.55,5.51L124.32,52.63z M118.53,36
			c0-4.99,4.05-9.03,9.03-9.03c4.99,0,9.02,4.05,9.02,9.03c0,4.99-4.04,9.02-9.02,9.02C122.58,45.02,118.53,40.98,118.53,36z"/>
		<path class="st0" d="M631.9,50.47l-5.51-9.55l-2.92,1.69c-0.86,0.5-1.92,0.45-2.75-0.09c-0.46-0.3-0.94-0.57-1.43-0.82
			c-0.88-0.45-1.45-1.34-1.45-2.33v-3.37h-11.03v3.37c0,0.99-0.57,1.88-1.45,2.33c-0.49,0.25-0.97,0.53-1.43,0.82
			c-0.83,0.54-1.89,0.59-2.75,0.09l-2.92-1.69l-5.51,9.55l2.93,1.69c0.86,0.5,1.33,1.44,1.28,2.43c-0.01,0.27-0.02,0.54-0.02,0.81
			c0,0.27,0.01,0.54,0.02,0.81c0.05,0.99-0.42,1.93-1.28,2.42l-2.94,1.7l5.51,9.55l2.93-1.69c0.86-0.5,1.92-0.45,2.75,0.1
			c0.46,0.3,0.93,0.57,1.42,0.82c0.88,0.45,1.45,1.34,1.45,2.33v3.37h11.03v-3.37c0-0.99,0.57-1.88,1.45-2.33
			c0.49-0.25,0.96-0.52,1.42-0.82c0.83-0.54,1.89-0.59,2.75-0.1l2.93,1.69l5.51-9.55l-2.93-1.69c-0.86-0.49-1.33-1.44-1.28-2.42
			c0.01-0.27,0.02-0.54,0.02-0.82c0-0.27-0.01-0.54-0.02-0.81c-0.05-0.99,0.42-1.94,1.28-2.43L631.9,50.47z M621.36,55.4
			c0,4.99-4.04,9.02-9.02,9.02s-9.03-4.04-9.03-9.02s4.05-9.03,9.03-9.03S621.36,50.42,621.36,55.4z"/>
	</g>
	<g>
		<g>
			<g>
				<rect x="372.92" y="12.4" class="st2" width="223.81" height="141.2"/>
			</g>
			<g>
				<rect x="372.92" y="12.4" class="st3" width="223.81" height="12.44"/>
			</g>
		</g>
		<g>
			<path class="st5" d="M384.6,18.7c0,1.73-1.4,3.13-3.13,3.13s-3.13-1.4-3.13-3.13s1.4-3.13,3.13-3.13S384.6,16.98,384.6,18.7z"/>
			<path class="st0" d="M397.38,18.7c0,1.73-1.4,3.13-3.13,3.13c-1.73,0-3.13-1.4-3.13-3.13s1.4-3.13,3.13-3.13
				C395.98,15.57,397.38,16.98,397.38,18.7z"/>
			<path class="st6" d="M410.16,18.7c0,1.73-1.4,3.13-3.13,3.13s-3.13-1.4-3.13-3.13s1.4-3.13,3.13-3.13S410.16,16.98,410.16,18.7z"
				/>
		</g>
		<g>
			<rect x="386.27" y="49.57" class="st0" width="6.65" height="2.43"/>
			<rect x="397.76" y="49.57" class="st0" width="107.4" height="2.43"/>
			<rect x="509.24" y="49.57" class="st3" width="12.63" height="2.43"/>
			<rect x="529.46" y="82.08" class="st0" width="12.63" height="2.43"/>
			<rect x="524.62" y="49.57" class="st5" width="42.58" height="2.43"/>
			<rect x="392.91" y="56.07" class="st0" width="6.65" height="2.43"/>
			<rect x="404.24" y="56.07" class="st5" width="50.06" height="2.43"/>
			<rect x="507.52" y="82.08" class="st5" width="18.93" height="2.43"/>
			<rect x="397.76" y="75.58" class="st5" width="47.81" height="2.43"/>
			<rect x="404.24" y="62.57" class="st3" width="33.54" height="2.43"/>
			<rect x="517.69" y="69.07" class="st5" width="33.54" height="2.43"/>
			<rect x="441.51" y="62.57" class="st5" width="84.68" height="2.43"/>
			<rect x="397.76" y="82.08" class="st3" width="105.43" height="2.43"/>
			<rect x="523.21" y="56.07" class="st3" width="55.4" height="2.43"/>
			<rect x="457.44" y="56.07" class="st0" width="63.02" height="2.43"/>
			<rect x="549.46" y="62.57" class="st0" width="21.53" height="2.43"/>
			<rect x="392.91" y="62.57" class="st0" width="6.65" height="2.43"/>
			<rect x="386.27" y="69.07" class="st5" width="6.65" height="2.43"/>
			<rect x="397.76" y="69.07" class="st0" width="39.3" height="2.43"/>
			<rect x="404.24" y="88.58" class="st0" width="39.3" height="2.43"/>
			<rect x="508.64" y="95.08" class="st3" width="50.62" height="2.43"/>
			<rect x="446.73" y="88.58" class="st3" width="70.53" height="2.43"/>
			<rect x="439.78" y="95.08" class="st0" width="65.43" height="2.43"/>
			<rect x="404.24" y="95.08" class="st5" width="11.38" height="2.43"/>
			<rect x="448.28" y="75.58" class="st0" width="73.6" height="2.43"/>
			<rect x="524.62" y="75.58" class="st3" width="47.77" height="2.43"/>
			<rect x="441.05" y="69.07" class="st3" width="73.54" height="2.43"/>
			<rect x="386.27" y="75.58" class="st0" width="6.65" height="2.43"/>
			<rect x="386.27" y="82.08" class="st0" width="6.65" height="2.43"/>
			<rect x="392.91" y="88.58" class="st5" width="6.65" height="2.43"/>
			<rect x="392.91" y="95.08" class="st0" width="6.65" height="2.43"/>
			<rect x="386.27" y="100.52" class="st0" width="6.65" height="2.43"/>
			<rect x="397.76" y="100.52" class="st0" width="77.97" height="2.43"/>
			<rect x="392.91" y="107.02" class="st0" width="6.65" height="2.43"/>
			<rect x="404.24" y="107.02" class="st5" width="50.06" height="2.43"/>
			<rect x="404.24" y="113.52" class="st3" width="33.54" height="2.43"/>
			<rect x="441.51" y="113.52" class="st5" width="84.68" height="2.43"/>
			<rect x="523.21" y="107.02" class="st3" width="55.4" height="2.43"/>
			<rect x="457.44" y="107.02" class="st0" width="63.02" height="2.43"/>
			<rect x="392.91" y="113.52" class="st0" width="6.65" height="2.43"/>
			<g>
				<path class="st3" d="M390.37,43.18c0.23,0.24,0.23,0.59,0,0.82c-0.12,0.11-0.25,0.16-0.4,0.16c-0.16,0-0.3-0.05-0.42-0.16
					l-2.56-2.6c-0.03-0.01-0.04-0.03-0.05-0.05c-0.01-0.01-0.03-0.02-0.03-0.02c-0.02-0.03-0.02-0.05-0.03-0.07
					c-0.02-0.01-0.03-0.03-0.03-0.04c-0.01-0.02-0.01-0.05-0.02-0.05c0-0.03-0.02-0.04-0.02-0.05c0-0.03,0-0.05,0-0.06
					c0-0.02-0.01-0.03-0.01-0.05c0-0.01,0.01-0.04,0.01-0.05c0-0.02,0-0.05,0-0.06c0-0.02,0.02-0.03,0.02-0.04
					c0.01-0.03,0.01-0.05,0.02-0.07c0-0.01,0.01-0.01,0.01-0.02c0.02-0.03,0.03-0.06,0.05-0.08c0,0,0-0.02,0.02-0.02
					c0.01-0.02,0.03-0.05,0.05-0.06l2.56-2.6c0.23-0.22,0.6-0.22,0.82,0c0.23,0.23,0.23,0.59,0,0.82L388.21,41L390.37,43.18z"/>
				<path class="st3" d="M392.7,43.47l2.24-5.32c0.11-0.26,0.4-0.37,0.67-0.26c0.25,0.1,0.37,0.4,0.26,0.65l-2.24,5.33
					c-0.08,0.19-0.27,0.3-0.47,0.3c-0.05,0-0.13-0.01-0.18-0.04C392.71,44.03,392.59,43.72,392.7,43.47z"/>
				<path class="st3" d="M400.27,41.32C400.27,41.32,400.27,41.33,400.27,41.32c-0.03,0.03-0.05,0.05-0.07,0.07l-2.56,2.6
					c-0.11,0.11-0.26,0.16-0.41,0.16c-0.16,0-0.29-0.05-0.41-0.16c-0.23-0.23-0.23-0.58,0-0.82l2.16-2.18l-2.16-2.18
					c-0.23-0.23-0.23-0.59,0-0.82c0.22-0.22,0.59-0.22,0.82,0l2.56,2.6c0.03,0.02,0.05,0.05,0.06,0.06c0.01,0,0.01,0.02,0.01,0.02
					c0.02,0.04,0.04,0.05,0.05,0.08c0,0.01,0.01,0.01,0.01,0.02c0.01,0.03,0.01,0.05,0.03,0.08c0,0.01,0.01,0.01,0.01,0.03
					c0,0.02,0,0.05,0,0.06c0,0.01,0.01,0.04,0.01,0.05c0,0.01-0.01,0.04-0.01,0.05c0,0.03,0,0.05,0,0.07c0,0.01-0.01,0.01-0.01,0.02
					c-0.02,0.04-0.02,0.06-0.03,0.08c0,0.01-0.01,0.01-0.01,0.03C400.31,41.26,400.29,41.29,400.27,41.32z"/>
			</g>
		</g>
	</g>
	<g>
		<g>
			<g>
				<rect x="68.56" y="39.61" class="st2" width="223.81" height="141.2"/>
			</g>
			<g>
				<rect x="68.56" y="39.61" class="st3" width="223.81" height="12.44"/>
			</g>
		</g>
		<g>
			<path class="st5" d="M80.24,45.92c0,1.73-1.4,3.13-3.13,3.13s-3.13-1.4-3.13-3.13c0-1.73,1.4-3.13,3.13-3.13
				S80.24,44.19,80.24,45.92z"/>
			<circle class="st0" cx="89.89" cy="45.92" r="3.13"/>
			<path class="st6" d="M105.8,45.92c0,1.73-1.4,3.13-3.13,3.13c-1.73,0-3.13-1.4-3.13-3.13c0-1.73,1.4-3.13,3.13-3.13
				C104.4,42.79,105.8,44.19,105.8,45.92z"/>
		</g>
		<g>
			<rect x="81.9" y="76.79" class="st0" width="6.65" height="2.43"/>
			<rect x="93.4" y="76.79" class="st0" width="87.4" height="2.43"/>
			<rect x="240.1" y="76.79" class="st0" width="26.2" height="2.43"/>
			<rect x="184.88" y="76.79" class="st3" width="12.63" height="2.43"/>
			<rect x="205.09" y="109.29" class="st0" width="12.63" height="2.43"/>
			<rect x="201.26" y="76.79" class="st5" width="35.58" height="2.43"/>
			<rect x="88.55" y="83.29" class="st0" width="6.65" height="2.43"/>
			<rect x="99.88" y="83.29" class="st5" width="50.06" height="2.43"/>
			<rect x="183.16" y="109.29" class="st5" width="18.93" height="2.43"/>
			<rect x="93.4" y="102.79" class="st5" width="47.81" height="2.43"/>
			<rect x="99.88" y="89.79" class="st3" width="33.54" height="2.43"/>
			<rect x="193.33" y="96.29" class="st5" width="33.54" height="2.43"/>
			<rect x="137.15" y="89.79" class="st5" width="64.68" height="2.43"/>
			<rect x="93.4" y="109.29" class="st3" width="85.43" height="2.43"/>
			<rect x="198.85" y="83.29" class="st3" width="48.4" height="2.43"/>
			<rect x="153.08" y="83.29" class="st0" width="43.02" height="2.43"/>
			<rect x="207.25" y="89.79" class="st0" width="14.53" height="2.43"/>
			<rect x="88.55" y="89.79" class="st0" width="6.65" height="2.43"/>
			<rect x="81.9" y="96.29" class="st5" width="6.65" height="2.43"/>
			<rect x="93.4" y="96.29" class="st0" width="39.3" height="2.43"/>
			<rect x="99.88" y="115.79" class="st0" width="39.3" height="2.43"/>
			<rect x="166.08" y="122.29" class="st3" width="43.62" height="2.43"/>
			<rect x="142.37" y="115.79" class="st3" width="50.53" height="2.43"/>
			<rect x="117.22" y="122.29" class="st0" width="45.43" height="2.43"/>
			<rect x="99.88" y="122.29" class="st5" width="14.77" height="2.43"/>
			<rect x="213.93" y="122.29" class="st5" width="11.38" height="2.43"/>
			<rect x="143.92" y="102.79" class="st0" width="53.6" height="2.43"/>
			<rect x="200.26" y="102.79" class="st3" width="40.77" height="2.43"/>
			<rect x="136.69" y="96.29" class="st3" width="53.54" height="2.43"/>
			<rect x="81.9" y="102.79" class="st0" width="6.65" height="2.43"/>
			<rect x="81.9" y="109.29" class="st0" width="6.65" height="2.43"/>
			<rect x="88.55" y="115.79" class="st5" width="6.65" height="2.43"/>
			<rect x="196.68" y="115.79" class="st5" width="32.32" height="2.43"/>
			<rect x="202.89" y="127.68" class="st5" width="32.32" height="2.43"/>
			<rect x="88.55" y="122.29" class="st0" width="6.65" height="2.43"/>
			<rect x="81.9" y="127.74" class="st0" width="6.65" height="2.43"/>
			<rect x="93.4" y="127.74" class="st0" width="77.97" height="2.43"/>
			<rect x="240.62" y="127.74" class="st0" width="25.16" height="2.43"/>
			<rect x="175.53" y="127.74" class="st3" width="21.98" height="2.43"/>
			<rect x="88.55" y="134.24" class="st0" width="6.65" height="2.43"/>
			<rect x="99.88" y="134.24" class="st5" width="50.06" height="2.43"/>
			<rect x="93.4" y="153.74" class="st5" width="47.81" height="2.43"/>
			<rect x="99.88" y="140.74" class="st3" width="33.54" height="2.43"/>
			<rect x="137.15" y="140.74" class="st5" width="64.68" height="2.43"/>
			<rect x="93.4" y="160.24" class="st3" width="85.43" height="2.43"/>
			<rect x="198.85" y="134.24" class="st3" width="48.4" height="2.43"/>
			<rect x="153.08" y="134.24" class="st0" width="43.02" height="2.43"/>
			<rect x="205.09" y="140.74" class="st0" width="14.53" height="2.43"/>
			<rect x="88.55" y="140.74" class="st0" width="6.65" height="2.43"/>
			<rect x="81.9" y="147.24" class="st5" width="6.65" height="2.43"/>
			<rect x="93.4" y="147.24" class="st0" width="39.3" height="2.43"/>
			<rect x="194.86" y="147.24" class="st5" width="39.3" height="2.43"/>
			<rect x="143.92" y="153.74" class="st0" width="73.6" height="2.43"/>
			<rect x="136.69" y="147.24" class="st3" width="53.54" height="2.43"/>
			<rect x="81.9" y="153.74" class="st0" width="6.65" height="2.43"/>
			<g>
				<path class="st3" d="M86.01,70.39c0.23,0.24,0.23,0.59,0,0.82c-0.12,0.11-0.25,0.16-0.4,0.16c-0.16,0-0.3-0.05-0.42-0.16
					l-2.56-2.6c-0.03-0.01-0.04-0.03-0.05-0.05c-0.01-0.01-0.03-0.02-0.03-0.02c-0.02-0.03-0.02-0.05-0.03-0.07
					c-0.02-0.01-0.03-0.03-0.03-0.04c-0.01-0.02-0.01-0.05-0.02-0.05c0-0.03-0.02-0.04-0.02-0.05c0-0.03,0-0.05,0-0.06
					c0-0.02-0.01-0.03-0.01-0.05c0-0.01,0.01-0.04,0.01-0.05c0-0.02,0-0.05,0-0.06c0-0.02,0.02-0.03,0.02-0.04
					c0.01-0.03,0.01-0.05,0.02-0.07c0-0.01,0.01-0.01,0.01-0.02c0.02-0.03,0.03-0.06,0.05-0.08c0,0,0-0.02,0.02-0.02
					c0.01-0.02,0.03-0.05,0.05-0.06l2.56-2.6c0.23-0.22,0.6-0.22,0.82,0c0.23,0.23,0.23,0.59,0,0.82l-2.16,2.18L86.01,70.39z"/>
				<path class="st3" d="M88.34,70.68l2.24-5.32c0.11-0.26,0.4-0.37,0.67-0.26c0.25,0.1,0.37,0.4,0.26,0.65l-2.24,5.33
					c-0.08,0.19-0.27,0.3-0.47,0.3c-0.05,0-0.13-0.01-0.18-0.04C88.35,71.24,88.23,70.94,88.34,70.68z"/>
				<path class="st3" d="M95.91,68.54C95.91,68.54,95.91,68.55,95.91,68.54c-0.03,0.03-0.05,0.05-0.07,0.07l-2.56,2.6
					c-0.11,0.11-0.26,0.16-0.41,0.16c-0.16,0-0.29-0.05-0.41-0.16c-0.23-0.23-0.23-0.58,0-0.82l2.16-2.18l-2.16-2.18
					c-0.23-0.23-0.23-0.59,0-0.82c0.22-0.22,0.59-0.22,0.82,0l2.56,2.6c0.03,0.02,0.05,0.05,0.06,0.06c0.01,0,0.01,0.02,0.01,0.02
					c0.02,0.04,0.04,0.05,0.05,0.08c0,0.01,0.01,0.01,0.01,0.02c0.01,0.03,0.01,0.05,0.03,0.08c0,0.01,0.01,0.01,0.01,0.03
					c0,0.02,0,0.04,0,0.06c0,0.01,0.01,0.04,0.01,0.05c0,0.01-0.01,0.04-0.01,0.05c0,0.03,0,0.05,0,0.07c0,0.01-0.01,0.01-0.01,0.02
					c-0.02,0.04-0.02,0.06-0.03,0.08c0,0.01-0.01,0.01-0.01,0.03C95.95,68.48,95.93,68.5,95.91,68.54z"/>
			</g>
		</g>
	</g>
	<g>
		<polygon class="st7" points="649.49,368.07 537.53,368.07 559.85,238.22 643.57,238.22 		"/>
		<polygon class="st5" points="649.49,368.07 639.67,368.07 634.16,238.22 643.57,238.22 		"/>
	</g>
	<g>
		<g>
			<g>
				<g>
					<path class="st8" d="M556.31,263.77c-9.01,35.77-17.91,63.14-28.1,69.84c-8.22,5.41-19.78,9.2-31.65,11.86
						c-13.94,3.1-28.38,4.66-38.5,5.5c-3.99,0.33-7.3,0.54-9.66,0.71c-5.83,0.37-15.36-38.09-11.24-42.78
						c0.95-1.07,4.79-1.9,10.17-2.58c18.13-2.27,53.83-2.81,55.95-4.84c2.21-2.12,20.41-27.61,36.01-47.63
						C550.07,240,561.31,243.93,556.31,263.77z"/>
					<g>
						<path class="st8" d="M460.08,347.78c-0.72,0.33-11.01,4.8-17.32,6.38c-4.71,1.18-18.36,4.21-20.18-0.85
							c-1.24-3.45,6.58-6.18,12.06-8.23c2.89-1.08,6.51-3.93,5.74-5.79c-1.35-3.25-8.79-0.31-13.71,2.31
							c-9.52,5.07-22.29,14.36-27.8,9.42c-2.08-1.87,0.53-5.03,4.31-8.08c-6.07,3.5-12.5,6.32-14.9,4.33
							c-1.38-1.13-1.39-2.61-0.54-4.27c-1.85,0.53-3.47,0.35-4.55-0.88c-1.85-2.09-0.8-5.03,1.42-8.01
							c-0.67-0.1-1.27-0.46-1.71-1.21c-3.85-6.37,17.24-23.49,24.36-24.9c20.97-4.17,43.02-1.56,43.02-1.56
							C458.19,313.28,460.1,347.77,460.08,347.78z"/>
						<g>
							<path class="st9" d="M430.23,327.28c-4.92,0.59-9.86,2.16-14.06,4.83c-4.97,3.15-9,7.56-13.62,11.16
								c-0.12,0.1,0.04,0.29,0.16,0.19c2.18-1.87,4.56-3.53,6.82-5.31c2.2-1.74,4.36-3.56,6.68-5.15c4.25-2.9,8.94-4.87,14.04-5.64
								C430.3,327.35,430.28,327.27,430.23,327.28z"/>
							<path class="st9" d="M426.68,318.31c-5.52,1.29-11.17,2.6-16.34,4.99c-5.65,2.62-10.17,7.07-14.6,11.35
								c-2.66,2.57-5.27,5.2-7.81,7.88c-0.11,0.11,0.04,0.3,0.16,0.19c4.5-4.42,9.13-8.72,13.9-12.86c4.48-3.9,9.43-6.82,15.05-8.73
								c3.17-1.08,6.42-1.91,9.66-2.74C426.75,318.39,426.74,318.3,426.68,318.31z"/>
							<path class="st9" d="M421.13,310.38c-5.35,0.89-10.01,1.66-14.82,4.33c-6.36,3.54-12.6,9.66-14.79,11.83
								c-2.42,2.4-4.76,4.88-7.06,7.39c-0.09,0.1,0.08,0.27,0.18,0.17c5.25-5.49,10.87-10.68,16.79-15.44
								c2.83-2.28,5.88-4.24,9.27-5.55c3.36-1.3,6.92-1.98,10.44-2.68C421.15,310.42,421.15,310.38,421.13,310.38z"/>
						</g>
					</g>
				</g>
				<g>
					<g>
						<path class="st3" d="M549.71,299.82l-32.14-18.95c0,0,13.72-22.16,25.44-32.63c11.72-10.46,16.45-2.25,14.67,12.95
							C555.9,276.39,549.71,299.82,549.71,299.82z"/>
					</g>
					<g>
						<g>
							<g>
								<g>
									<path class="st9" d="M522.63,276.05c5.15,2.63,18.9,10.2,27.17,16.34c0.05,0.04-0.07,0.25-0.13,0.22
										c-7.67-4.01-22.33-13.15-27.22-16.24C522.36,276.31,522.53,276,522.63,276.05z"/>
								</g>
							</g>
						</g>
					</g>
					<path class="st9" d="M520.21,282.44l29.49,17.39c0,0,6.19-23.42,7.98-38.63c1.14-9.81-0.41-16.71-4.82-17.55L520.21,282.44z"/>
				</g>
			</g>
			<g>
				<path class="st6" d="M517.79,368.07h110.95c1.22-2.24-16.96-99.43-54.38-126.8c-8.3-6.07-23.03-2.17-27.13,3.74
					C526.64,274.68,517.79,368.07,517.79,368.07z"/>
				<path class="st3" d="M574.46,241.27c0,0-14.87,39.78-16.42,58.55c-0.45,5.48-5.11,68.51-5.11,68.51h78.32
					c0,0-15.58-76.41-40.86-111.88C582.39,245.2,574.46,241.27,574.46,241.27z"/>
				<path class="st3" d="M550.72,240.69c0,0-13.19,31.94-16.5,50.01c-1.81,9.92-11.01,77.64-11.01,77.64h-8.41
					c0,0,8.41-72.49,21.72-105.29C543.66,245.47,550.72,240.69,550.72,240.69z"/>
				<path class="st10" d="M564.46,283.12l18.91,2.34c0,0-1.07,17.56-1.45,18.24c-0.39,0.68-10.51,4.84-11.19,4.45
					c-0.68-0.39-8.06-5.78-8.42-6.27C561.86,301.28,564.46,283.12,564.46,283.12z"/>
			</g>
			<g>
				<g>
					<g>
						<path class="st8" d="M551.59,262.95c6.58,1.2,17.23-9.31,21.23-17.59c0.27-0.57-3.16-22.54-3.39-26.96
							c-0.04-0.91-27.4,8.17-27.4,8.17s3.21,9.13,3.56,16.85C545.61,244.06,545.23,261.78,551.59,262.95z"/>
					</g>
					<path class="st9" d="M571.16,232.19c-12.18,10.5-25.26,8.19-25.85,8.08c-0.87-6.85-3.28-13.71-3.28-13.71s27.36-9.08,27.4-8.17
						C569.54,220.47,570.35,226.41,571.16,232.19z"/>
				</g>
				<g>
					<path class="st9" d="M528.88,182.16c0,0-7.72,5.6-7.22,14.68c0.51,9.08,4.67,17.74,5.53,18
						C528.05,215.11,528.88,182.16,528.88,182.16z"/>
					<g>
						<path class="st8" d="M568.16,184.53c4.63,9.2,4.31,38.13-1.53,45.57c-8.46,10.78-24.7,14.46-34.47,3.74
							c-9.47-10.39-8.38-48.08-1.64-55.08C540.45,168.44,561.32,170.94,568.16,184.53z"/>
					</g>
					<path class="st11" d="M566.63,230.1c-8.46,10.78-24.7,14.45-34.47,3.74c-3.46-3.79-5.5-11.21-6.38-19.45
						c0,0,2.38,5.86,5.79,5.9c3.4,0.04,4.3-3.21,4.3-3.21l1.42-0.47c0,0,6.88,5.48,15.97,1.72c9.09-3.77,10.61-14.67,10.61-14.67
						l7.46,0.34C571.49,214.59,569.96,225.85,566.63,230.1z"/>
					<g>
						<g>
							<path class="st9" d="M543.21,206.29c0.02-0.07,0.15,0.09,0.15,0.17c-0.07,1.95,0.17,4.19,1.93,4.85
								c0.05,0.02,0.05,0.12-0.02,0.11C543.12,211.1,542.83,208.12,543.21,206.29z"/>
							<path class="st9" d="M544.97,204.26c3.14-0.22,3.34,6.07,0.44,6.27C542.54,210.73,542.34,204.45,544.97,204.26z"/>
						</g>
						<g>
							<path class="st9" d="M532.47,206.93c-0.02-0.07-0.15,0.1-0.14,0.18c0.13,1.95-0.06,4.19-1.8,4.9
								c-0.05,0.02-0.05,0.12,0.02,0.11C532.68,211.74,532.9,208.76,532.47,206.93z"/>
							<path class="st9" d="M530.66,204.96c-3.14-0.13-3.18,6.16-0.27,6.28C533.25,211.36,533.29,205.07,530.66,204.96z"/>
						</g>
						<path class="st9" d="M547.35,201.31c-0.86-0.19-1.63-0.5-2.46-0.78c-0.94-0.31-1.72-0.46-2.36-1.27
							c-0.34-0.44-0.23-1.24,0.16-1.62c0.92-0.87,2.16-0.77,3.31-0.45c1.25,0.35,2.12,0.94,2.86,2
							C549.58,200.22,548.49,201.55,547.35,201.31z"/>
						<path class="st9" d="M528.13,201.87c0.87-0.17,1.64-0.47,2.48-0.73c0.95-0.29,1.73-0.42,2.38-1.23
							c0.35-0.43,0.26-1.24-0.13-1.62c-0.9-0.88-2.15-0.82-3.3-0.51c-1.25,0.33-2.14,0.9-2.9,1.95
							C525.92,200.74,526.98,202.1,528.13,201.87z"/>
						<path class="st9" d="M546.13,224.26c-0.45,0.47-0.9,1.11-1.6,1.2c-0.68,0.08-1.48-0.2-2.11-0.42
							c-0.06-0.02-0.12,0.05-0.08,0.1c0.53,0.73,1.61,1.16,2.51,0.98c0.88-0.18,1.29-0.96,1.47-1.77
							C546.34,224.23,546.19,224.19,546.13,224.26z"/>
						<g>
							<g>
								<path class="st9" d="M543.89,218.5c-1.03,1.73-2.61,2.7-4.33,3.1c-0.77,0.18-1.58,0.23-2.38,0.19
									c-0.16,0-0.31-0.01-0.46-0.04c-0.14-0.01-0.27-0.02-0.43-0.05c-0.23-0.03-0.36-0.21-0.41-0.42l0-0.01
									c0-0.07,0-0.13,0.01-0.2c0,0,0,0,0-0.01l0-0.17c-0.09-1.5-0.02-3.78-0.02-3.78c-0.54,0.29-3.29,1.64-3.27,0.86
									c0.17-6.5,0.37-13.72,1.91-20.15c0.04-0.21,0.37-0.18,0.36,0.04c0.08,6.25-0.94,12.48-0.96,18.76
									c0.88-0.37,2.31-1.04,3.1-1.05c0.21,0.05-0.22,4.41-0.12,5.08c0,0,0,0.03,0.02,0.07c2.53,0.24,4.4-0.58,6.79-2.36
									C543.84,218.21,544,218.34,543.89,218.5z"/>
							</g>
						</g>
						<g>
							<path class="st9" d="M538.04,220.99c0,0,1.39,1.75,3.23,2.34c0.68,0.22,1.4,0.29,2.15,0.06c1.54-0.46,1.53-1.89,1.21-3.1
								c-0.26-1-0.76-1.85-0.76-1.85S541.67,220.65,538.04,220.99z"/>
							<path class="st12" d="M541.27,223.33c0.68,0.22,1.4,0.29,2.15,0.06c1.54-0.46,1.53-1.89,1.21-3.1
								C542.97,220.52,541.35,221.7,541.27,223.33z"/>
						</g>
					</g>
					<g>
						<path class="st9" d="M570.83,212.33c-3.46,1.07-7.46-9.33-8.59-13.33c-1-3.52-2.16-14.71-2.33-15.47
							c-0.17-0.76-15.07,9.92-23.79,7.39c-8.73-2.53-14.57-10.35-14.69-14c-0.13-3.65,10.69-12.94,20.06-13.43
							c9.37-0.49,22.07,11.4,22.07,11.4s-4.32-5.14-4.17-5.56c0.15-0.42,6.2,1.99,7.32,6.3c0,0-1.21-5.41-0.75-5.51
							c0.46-0.1,5.17,4.53,4.11,8.04c0,0,5.45,4.7,5.96,9.87C576.55,193.18,574.89,211.08,570.83,212.33z"/>
						<path class="st9" d="M529.92,189.11c2.65,1.22,5.31,2.55,8.24,2.93c3.17,0.41,6.45-0.39,9.4-1.52
							c3.01-1.16,5.75-2.84,8.24-4.89c2.18-1.8,4.11-3.97,6.44-5.57c0.58-0.4,1.26,0.44,0.9,0.97c-3.53,5.31-9.78,9.75-15.8,11.67
							c-6.34,2.02-12.31,0.62-17.45-3.52C529.86,189.15,529.88,189.09,529.92,189.11z"/>
					</g>
					<g>
						<path class="st8" d="M566.08,208.42c0,0,4.99-10.06,9.46-8.41c4.47,1.65,1.68,15.56-2.9,18.09c-4.58,2.54-7.01-1.65-7.01-1.65
							L566.08,208.42z"/>
						<path class="st9" d="M574.64,203.97c0.08-0.02,0.11,0.09,0.04,0.13c-3.19,1.89-4.51,5.31-5.27,8.77
							c0.82-1.41,2.09-2.31,3.96-1.36c0.1,0.05,0.03,0.2-0.06,0.2c-1.44-0.09-2.41,0.3-3.18,1.56c-0.55,0.89-0.85,1.96-1.19,2.94
							c-0.11,0.33-0.69,0.25-0.62-0.12c0-0.03,0.01-0.06,0.02-0.08C567.6,211.68,570.06,205.11,574.64,203.97z"/>
					</g>
				</g>
			</g>
			<g>
				<g>
					<path class="st8" d="M590.83,253.06c21.51,27.02,50.08,74.36,37.24,84.06c-21.11,15.94-81.19,23.19-94.95,24.29
						c-5.94,0.47-16.22-38.63-12.07-43.47c4.15-4.84,67.4-5.82,68-9.68c0.34-2.18-8.47-21.69-13.69-45.38
						C569.33,235.55,584.76,245.44,590.83,253.06z"/>
					<g>
						<path class="st8" d="M531.51,315.17c0,0-18.1-0.87-29.97-0.88c-6.62-0.01-17.97,1-22.84,3.22
							c-7.28,3.32-35.6,21.86-31.25,28.82c3.93,6.3,26.24-12.71,26.24-12.71s-24.21,17.2-18.07,23.91
							c6.13,6.72,28.48-18.12,28.48-18.12s-24.47,18.23-17.05,24.15c5.61,4.48,27.11-16.87,27.11-16.87s-20.93,15.81-15.36,20.67
							c6.15,5.36,27.24-13.1,27.24-13.1c16.23,9.96,28.03,8.06,36.27,5.71C544.3,359.4,531.51,315.17,531.51,315.17z"/>
						<g>
							<path class="st9" d="M481.68,327.13c-2.92,1.92-5.88,3.84-8.62,6.01c-2.74,2.17-5.4,4.44-7.92,6.85
								c-6.19,5.92-9.13,10.6-8.92,10.33c5.05-6.36,14.72-14.28,17.46-16.45c2.73-2.17,5.35-4.47,8.08-6.64
								C481.84,327.17,481.75,327.08,481.68,327.13z"/>
							<path class="st9" d="M489.7,336.86c-3.62,2.61-7.31,5.07-10.81,7.84c-3.49,2.76-8.24,6.79-11.53,9.77
								c-0.25,0.23-0.03,0.69,0.24,0.47c3.4-2.86,8.44-6.74,11.88-9.56c3.43-2.81,6.77-5.77,10.29-8.44
								C489.82,336.9,489.75,336.82,489.7,336.86z"/>
							<path class="st9" d="M498.08,343.98c-5.73,3.7-10.78,8.46-15.61,13.25c-0.24,0.24,0.04,0.29,0.3,0.06
								c5.11-4.5,9.08-8.07,15.45-13.11C498.31,344.1,498.2,343.9,498.08,343.98z"/>
							<path class="st9" d="M534.08,314.7c-8.26-0.39-32.53-1.43-40.79-1.13c-7.29,0.27-13.39,1.59-19.68,5.4
								c-13.48,8.15-22.35,18.01-24.58,20.96c-1.35,1.79-3.32,4.64-1.71,6.75c1.96,2.57,9.68,0.45,18.01-6.49
								c0.3-0.25,0.12-0.42-0.18-0.19c-11.65,8.69-16.1,7.45-17.21,5.84c-0.72-1.04,0.08-2.76,0.82-4.07
								c1.07-1.9,2.7-3.61,4.21-5.15c5.22-5.32,11.47-10.14,17.67-14.27c7.13-4.75,14.6-7.29,23.17-7.65
								c8.47-0.35,31.83,0.81,40.29,0.34C534.28,315.01,534.26,314.71,534.08,314.7z"/>
							<path class="st9" d="M454.42,353.84c0.56-2.24,2.27-4.23,3.63-6.04c1.68-2.24,3.51-4.43,5.61-6.28
								c0.09-0.08,0.24,0.03,0.15,0.13c-1.75,1.96-3.48,3.91-4.98,6.06c-0.82,1.17-1.57,2.37-2.25,3.63
								c-0.65,1.21-1.4,2.6-1.15,4.02c0.48,2.71,3.89,2.78,5.93,2.14c1.33-0.42,2.61-1.02,3.84-1.68c1.27-0.67,3.64-2.37,4.75-3.29
								c0.13-0.11,0.45-0.05,0.32,0.06c-3.12,2.75-9.06,8.47-13.62,6.1C454.82,357.75,453.92,355.85,454.42,353.84z"/>
						</g>
					</g>
				</g>
				<g>
					<g>
						<path class="st3" d="M617.33,280.99l-34.37,14.54c0,0-9.64-24.22-11.06-39.87c-1.43-15.65,7.98-14.56,19.14-4.08
							C602.19,262.06,617.33,280.99,617.33,280.99z"/>
					</g>
					<g>
						<g>
							<g>
								<g>
									<path class="st9" d="M582.11,288.59c5.18-2.57,19.45-9.12,29.3-12.1c0.06-0.02,0.16,0.21,0.1,0.24
										c-7.79,3.77-23.86,10.11-29.26,12.2C582.15,288.97,582.01,288.64,582.11,288.59z"/>
								</g>
							</g>
						</g>
						<path class="st9" d="M574.61,275.68c-0.02-0.05,0.06-0.08,0.09-0.04c0.7,1.18,1.32,2.37,1.93,3.6
							c-0.76-2.71-1.45-5.43-2.09-8.16c-0.02-0.1,0.12-0.13,0.15-0.04c2.79,7.95,5.78,15.86,8.4,23.87c0.89-0.09,1.79-0.2,2.67-0.37
							c0.15-0.03,0.21,0.19,0.06,0.23c-0.95,0.29-1.89,0.65-2.82,1.02c-0.21,0.08-0.51,0.08-0.62-0.17
							c-1.98-4.51-3.62-9.17-5.04-13.9c-0.41-0.71-0.81-1.43-1.16-2.16C575.56,278.29,575.04,277.02,574.61,275.68z"/>
					</g>
				</g>
			</g>
		</g>
	</g>
	<g>
		<polygon class="st7" points="32.81,368.07 144.77,368.07 122.45,238.22 38.73,238.22 		"/>
		<polygon class="st5" points="32.81,368.07 42.63,368.07 48.14,238.22 38.73,238.22 		"/>
	</g>
	<g>
		<g>
			<path class="st9" d="M150.76,285.46c-1,0.01-5.68,0.05-12.52,0.13c-2.26-4.15-4.85-11.49-3.32-21.81
				c0.27-1.71-4.31,8.07-3.04,21.88c-13.22,0.14-31.2,0.32-46.91,0.34c-0.12-5.81-0.52-11.18-0.52-11.18
				c-0.67,4.18-1.73,7.94-2.9,11.2c-2.15,0.02-4.25,0-6.27,0c0.74-9.01-0.39-24.73-0.39-24.73c-1.76,10.9-5.72,19.58-8.53,24.69
				c-9.97-0.09-16.52-0.32-16.09-0.76c15.59-16.19,4.84-25.75,9.58-40.12c5.68-17.21,21.5-19.77,21.44-32.75
				c-0.02-10.56-0.82-29.73,13.4-33.66c0,0,11.83-11.74,29.62-4.98c22.01,8.34,12.19,40.8,13.5,47.44
				c1.87,9.49,6.52,12.88,9.73,23.71c3.28,10.96-2.19,18.15-3.02,25.54C143.71,277.79,153.26,285.47,150.76,285.46z"/>
			<path class="st9" d="M49.89,282.87c2.1-2.9,3.99-5.96,5.13-9.18c1.24-3.2,0.85-6.51,0.27-9.92c-0.58-3.39-1.29-6.86-1.51-10.45
				c-0.18-3.58,0.08-7.34,1.44-10.86c1.3-3.53,3.55-6.72,6.29-9.29c2.71-2.62,5.8-4.71,8.77-6.78c2.95-2.09,5.89-4.16,8.14-6.85
				c2.29-2.64,3.74-5.91,4.29-9.39c0.04,3.5-1.06,7.1-3.2,10.13c-2.12,3.05-5.02,5.48-7.89,7.73c-2.87,2.27-5.75,4.42-8.18,6.9
				c-2.42,2.48-4.37,5.29-5.47,8.42c-1.11,3.12-1.5,6.45-1.35,9.82c0.1,3.38,0.66,6.78,1.03,10.29c0.17,1.76,0.31,3.55,0.19,5.38
				c-0.11,1.84-0.66,3.7-1.43,5.35C54.8,277.48,52.53,280.37,49.89,282.87z"/>
			<path class="st9" d="M136.5,185.97c1.61,4.02,2.12,8.37,2.64,12.63c0.43,4.29,0.64,8.59,0.81,12.88l0.29,6.4
				c0.1,2.14,0.32,4.15,0.83,6.12c0.98,3.97,3.21,7.44,5.74,10.98c1.22,1.79,2.46,3.66,3.46,5.68c1,2.02,1.79,4.15,2.28,6.34
				c0.43,2.21,0.7,4.38,0.77,6.6c0.09,2.21-0.11,4.48-0.59,6.66c-0.47,2.2-1.19,4.27-1.81,6.3c-0.62,2.03-1.04,4.11-1.24,6.18
				c-0.46,4.1,1.71,8.23,5.13,10.96c-3.83-2.24-6.55-6.43-6.54-10.99c0.01-2.22,0.31-4.4,0.79-6.56c0.46-2.15,1.1-4.21,1.41-6.25
				c0.67-4.06,0.26-8.3-0.65-12.3c-0.52-1.98-1.22-3.9-2.16-5.73c-0.93-1.84-2.11-3.58-3.34-5.35c-1.21-1.78-2.48-3.61-3.54-5.59
				c-1.06-1.98-1.94-4.1-2.44-6.3c-0.49-2.2-0.66-4.48-0.69-6.62c-0.06-2.17-0.03-4.32,0-6.47c0.04-4.29,0.14-8.57,0.05-12.84
				C137.66,194.43,137.46,190.16,136.5,185.97z"/>
		</g>
		<g>
			<g>
				<path class="st13" d="M108.13,263.81c7.13,31.04,21.55,70.33,32.7,78.26c8.99,6.4,56.15,17.66,58.78,17.94
					c6.51,0.66,19.37-45.34,12.62-47.21c-8.5-2.35-48.92-3.61-51.22-5.97c-2.39-2.47-17.09-22.39-33.75-45.46
					C115.76,245.43,103.7,244.55,108.13,263.81z"/>
				<g>
					<path class="st13" d="M194.38,357.48c0.78,0.39,11.79,5.93,18.6,7.91c5.08,1.47,19.82,5.32,21.99-0.11
						c1.49-3.7-6.91-6.99-12.8-9.44c-3.1-1.29-6.92-4.54-6.01-6.53c1.6-3.49,9.58,0.02,14.84,3.07
						c10.16,5.9,23.68,16.52,29.89,11.37c2.34-1.95-0.38-5.49-4.36-8.97c6.46,4.05,13.36,7.38,16.05,5.32
						c1.54-1.17,1.61-2.78,0.76-4.62c2,0.65,3.76,0.52,4.99-0.78c2.1-2.2,1.08-5.44-1.22-8.77c0.74-0.08,1.4-0.45,1.91-1.25
						c4.45-6.78-17.82-26.26-25.52-28.08c-22.66-5.39-46.76-3.42-46.76-3.42C197.82,320.27,194.36,357.47,194.38,357.48z"/>
					<g>
						<path class="st9" d="M227.7,336.63c5.34,0.84,10.59,2.83,15.11,5.82c5.74,3.79,9.55,8.23,14.37,12.7
							c0.13,0.12-0.05,0.32-0.18,0.2c-2.3-2.12-11.81-10.11-14.27-11.92c-4.51-3.33-9.54-5.66-15.06-6.7
							C227.62,336.71,227.64,336.62,227.7,336.63z"/>
						<path class="st9" d="M231.92,327.01c5.95,1.63,12.06,3.27,17.58,6.09c6.05,3.08,10.78,8.11,15.44,12.94
							c2.79,2.9,5.53,5.87,8.19,8.9c0.11,0.13-0.06,0.33-0.18,0.2c-4.72-5-9.59-9.86-14.61-14.55c-4.72-4.42-9.99-7.8-16.04-10.11
							c-3.41-1.3-6.91-2.33-10.4-3.36C231.83,327.1,231.85,326.99,231.92,327.01z"/>
						<path class="st9" d="M238.28,318.61c5.79,1.19,10.83,2.2,15.96,5.3c6.78,4.1,13.33,11.02,15.63,13.47
							c2.54,2.71,4.98,5.5,7.38,8.33c0.1,0.11-0.1,0.29-0.2,0.17c-5.49-6.18-11.41-12.06-17.65-17.48
							c-2.98-2.59-6.23-4.85-9.87-6.42c-3.6-1.55-7.46-2.43-11.26-3.34C238.25,318.64,238.25,318.6,238.28,318.61z"/>
					</g>
				</g>
			</g>
			<g>
				<path class="st3" d="M160.65,302.31l-43.47-1.84c0,0-7.89-21.54-10.8-40.66c-2.9-19.12,13.39-12.26,29.52,8.34
					S160.65,302.31,160.65,302.31z"/>
				<path class="st6" d="M118.19,262.19c-0.28,0.23-0.53,0.35-0.83,0.42c-0.58,0.11-1.15-0.06-1.55-0.48
					c-0.62-0.61-1.63-0.78-2.39-0.41c-0.38,0.15-0.7,0.5-0.89,0.78c-0.2,0.3-0.42,0.58-0.6,0.9c0.32-0.18,0.6-0.4,0.9-0.6
					c0.3-0.24,0.53-0.37,0.83-0.44c0.56-0.14,1.16,0.01,1.55,0.4c0.58,0.61,1.59,0.84,2.37,0.5c0.38-0.15,0.71-0.47,0.91-0.76
					c0.2-0.3,0.42-0.58,0.6-0.91C118.77,261.78,118.49,262,118.19,262.19z M120.57,282.3c-0.07-0.35-0.11-0.71-0.21-1.06
					c-0.1,0.35-0.14,0.71-0.22,1.06c-0.04,0.38-0.11,0.64-0.27,0.9c-0.3,0.5-0.83,0.81-1.38,0.81c-0.85-0.02-1.72,0.53-2.02,1.32
					c-0.17,0.38-0.18,0.84-0.12,1.19c0.07,0.35,0.12,0.71,0.22,1.06c0.1-0.35,0.14-0.71,0.21-1.06c0.04-0.36,0.13-0.62,0.3-0.88
					c0.33-0.49,0.85-0.77,1.42-0.76c0.88-0.01,1.72-0.6,1.99-1.4C120.65,283.1,120.64,282.63,120.57,282.3z M151.46,298.47
					c-0.01,0.03-0.02,0.05-0.04,0.09c-0.3,0.5-0.84,0.82-1.39,0.81c-0.84-0.01-1.72,0.54-2.02,1.33c-0.16,0.33-0.19,0.74-0.14,1.07
					l0.47,0.02c0.05-0.31,0.13-0.55,0.28-0.78c0.32-0.49,0.84-0.78,1.43-0.77c0.67,0,1.32-0.35,1.71-0.87c0,0,0,0,0-0.01
					C151.66,299.07,151.56,298.77,151.46,298.47z M133.43,300.32c-0.3,0.24-0.53,0.37-0.83,0.44c-0.56,0.14-1.16-0.02-1.54-0.41
					c-0.59-0.61-1.6-0.84-2.37-0.49c-0.39,0.15-0.72,0.47-0.92,0.76c-0.06,0.1-0.13,0.19-0.2,0.28l0.5,0.02
					c0.28-0.22,0.54-0.34,0.83-0.41c0.58-0.11,1.15,0.06,1.55,0.47c0.02,0.02,0.04,0.04,0.06,0.05l2.73,0.11
					c0.2-0.15,0.37-0.35,0.49-0.52c0.2-0.3,0.42-0.58,0.6-0.9C134.01,299.9,133.73,300.12,133.43,300.32z M141.39,277.79
					c-0.36-0.04-0.62-0.13-0.87-0.29c-0.49-0.33-0.78-0.85-0.76-1.43c-0.01-0.88-0.6-1.71-1.4-1.99c-0.38-0.16-0.85-0.14-1.18-0.08
					c-0.36,0.08-0.71,0.12-1.07,0.22c0.36,0.1,0.71,0.14,1.07,0.21c0.37,0.04,0.63,0.12,0.89,0.27c0.5,0.3,0.81,0.84,0.81,1.39
					c-0.02,0.84,0.53,1.72,1.33,2.02c0.38,0.17,0.83,0.18,1.18,0.11c0.36-0.07,0.71-0.11,1.06-0.21
					C142.1,277.91,141.75,277.87,141.39,277.79z"/>
				<path class="st9" d="M115.7,291.03c9.4-0.24,18.83,0.18,28.23,0.78c2.66,0.17,5.32,0.4,7.96,0.7c0.07,0.01,0.08,0.12,0,0.12
					c-4.7,0.02-9.39-0.15-14.09-0.29c-4.71-0.14-9.43-0.33-14.13-0.6c-2.66-0.16-5.31-0.31-7.97-0.52
					C115.59,291.2,115.58,291.03,115.7,291.03z"/>
				<path class="st9" d="M154.81,302.06l-37.62-1.6c0,0-7.9-21.54-10.8-40.66c-1.23-8.14,1.01-11.57,5.23-11.24h0.01L154.81,302.06z
					"/>
			</g>
		</g>
		<g>
			<path class="st3" d="M144.83,367.95H38.56c0,0,23.08-89.14,44.44-114.23c0.48-0.58,0.97-1.12,1.47-1.64
				c0.1-0.12,0.19-0.2,0.29-0.31c1.84-1.93,3.77-3.37,5.71-4.41c0.37-0.2,0.75-0.39,1.14-0.56c8.23-3.78,16.92-0.65,23.19,4.72
				c1.99,1.7,24.52,31.01,26.51,42.18c1.72,9.86-4.94,20.46-4.94,20.46L144.83,367.95z"/>
			<path class="st6" d="M97.37,274c-0.36-0.04-0.62-0.13-0.87-0.29c-0.49-0.33-0.78-0.85-0.76-1.43c-0.01-0.88-0.6-1.71-1.4-1.99
				c-0.38-0.16-0.85-0.14-1.18-0.08c-0.36,0.07-0.71,0.12-1.06,0.22c0.35,0.09,0.7,0.14,1.06,0.21c0.37,0.04,0.63,0.11,0.89,0.27
				c0.5,0.3,0.82,0.84,0.81,1.38c-0.01,0.85,0.54,1.73,1.33,2.03c0.38,0.17,0.84,0.18,1.18,0.11c0.36-0.07,0.71-0.11,1.07-0.21
				C98.08,274.12,97.73,274.07,97.37,274z M116.98,344.15c-0.36-0.05-0.62-0.14-0.87-0.3c-0.49-0.33-0.78-0.85-0.76-1.43
				c-0.01-0.88-0.6-1.71-1.4-1.99c-0.38-0.15-0.85-0.14-1.18-0.07c-0.36,0.07-0.71,0.11-1.06,0.21c0.35,0.1,0.7,0.14,1.06,0.21
				c0.37,0.05,0.63,0.12,0.89,0.27c0.5,0.31,0.82,0.84,0.81,1.39c-0.01,0.85,0.54,1.72,1.33,2.02c0.38,0.17,0.84,0.18,1.18,0.12
				c0.36-0.08,0.71-0.12,1.07-0.22C117.69,344.26,117.34,344.22,116.98,344.15z M69.56,303.35c-0.36-0.04-0.62-0.13-0.87-0.29
				c-0.49-0.33-0.78-0.85-0.77-1.43c0-0.88-0.59-1.71-1.39-1.99c-0.38-0.16-0.85-0.14-1.18-0.08c-0.36,0.07-0.71,0.12-1.07,0.21
				c0.36,0.1,0.71,0.15,1.07,0.22c0.37,0.04,0.63,0.11,0.89,0.27c0.5,0.3,0.81,0.84,0.81,1.38c-0.02,0.85,0.53,1.73,1.33,2.03
				c0.37,0.17,0.83,0.18,1.18,0.11c0.36-0.07,0.71-0.12,1.06-0.21C70.27,303.47,69.92,303.42,69.56,303.35z M111.45,367.62
				c-0.36-0.04-0.62-0.13-0.88-0.29c-0.49-0.33-0.77-0.85-0.76-1.43c-0.01-0.88-0.6-1.71-1.4-1.99c-0.38-0.16-0.85-0.14-1.18-0.08
				c-0.35,0.07-0.71,0.12-1.06,0.21c0.35,0.1,0.71,0.15,1.06,0.22c0.38,0.04,0.64,0.11,0.9,0.27c0.5,0.3,0.81,0.84,0.81,1.38
				c-0.02,0.85,0.53,1.73,1.32,2.03c0.01,0,0.02,0.01,0.03,0.01h1.69c0.18-0.03,0.35-0.06,0.53-0.11
				C112.16,367.74,111.8,367.69,111.45,367.62z M90.82,333.09c-0.35-0.05-0.62-0.14-0.87-0.3c-0.49-0.33-0.78-0.85-0.76-1.43
				c-0.01-0.88-0.6-1.71-1.4-1.98c-0.38-0.16-0.85-0.15-1.18-0.08c-0.36,0.07-0.71,0.11-1.06,0.21c0.35,0.1,0.7,0.14,1.06,0.21
				c0.37,0.05,0.63,0.12,0.89,0.27c0.5,0.31,0.82,0.84,0.81,1.39c-0.01,0.85,0.54,1.72,1.33,2.02c0.38,0.17,0.84,0.18,1.18,0.12
				c0.36-0.08,0.71-0.12,1.07-0.22C91.53,333.2,91.18,333.16,90.82,333.09z M39.39,365.13c-0.03,0-0.05-0.01-0.07-0.02h-0.01
				c-0.04,0.16-0.08,0.32-0.12,0.47c0.07,0,0.14-0.01,0.2-0.02c0.35-0.08,0.7-0.12,1.06-0.22
				C40.09,365.24,39.74,365.19,39.39,365.13z M52.67,339.36c-0.36-0.04-0.62-0.13-0.87-0.29c-0.49-0.33-0.78-0.85-0.76-1.43
				c-0.01-0.88-0.6-1.71-1.4-1.99c-0.38-0.16-0.85-0.14-1.18-0.08c-0.21,0.04-0.42,0.08-0.63,0.12c-0.02,0.06-0.04,0.12-0.06,0.18
				c0.23,0.05,0.46,0.08,0.69,0.13c0.37,0.04,0.63,0.11,0.89,0.27c0.5,0.3,0.81,0.84,0.81,1.38c-0.02,0.85,0.53,1.73,1.33,2.03
				c0.38,0.17,0.83,0.18,1.18,0.11c0.36-0.07,0.71-0.11,1.06-0.21C53.38,339.48,53.03,339.43,52.67,339.36z M108.39,304.2
				c-0.36-0.05-0.63-0.14-0.88-0.3c-0.49-0.33-0.77-0.85-0.76-1.43c-0.01-0.88-0.6-1.71-1.4-1.98c-0.38-0.16-0.85-0.15-1.18-0.08
				c-0.35,0.07-0.71,0.11-1.06,0.21c0.35,0.1,0.71,0.14,1.06,0.21c0.38,0.05,0.63,0.12,0.9,0.27c0.49,0.31,0.81,0.84,0.8,1.39
				c-0.01,0.85,0.54,1.72,1.33,2.02c0.38,0.17,0.84,0.18,1.19,0.12c0.35-0.08,0.71-0.12,1.06-0.22
				C109.1,304.31,108.74,304.27,108.39,304.2z M137.7,322.6c-0.3-0.05-0.54-0.14-0.77-0.28c-0.49-0.33-0.77-0.85-0.76-1.43
				c0-0.88-0.6-1.71-1.4-1.99c-0.38-0.15-0.85-0.14-1.18-0.07c-0.35,0.07-0.7,0.11-1.06,0.21c0.36,0.1,0.71,0.14,1.06,0.21
				c0.38,0.05,0.64,0.12,0.9,0.27c0.5,0.31,0.81,0.84,0.81,1.39c-0.02,0.85,0.53,1.72,1.32,2.02c0.37,0.16,0.81,0.18,1.15,0.12
				L137.7,322.6z M133.43,300.32c-0.3,0.24-0.53,0.37-0.83,0.44c-0.56,0.14-1.16-0.02-1.54-0.41c-0.59-0.61-1.6-0.84-2.37-0.49
				c-0.39,0.15-0.72,0.47-0.92,0.76c-0.2,0.3-0.42,0.58-0.6,0.9c0.32-0.18,0.6-0.4,0.9-0.6c0.28-0.22,0.54-0.34,0.83-0.41
				c0.58-0.11,1.15,0.06,1.55,0.47c0.62,0.62,1.63,0.79,2.39,0.42c0.38-0.16,0.7-0.5,0.89-0.78c0.2-0.3,0.42-0.58,0.6-0.9
				C134.01,299.9,133.73,300.12,133.43,300.32z M97.37,246.26c-0.07-0.33-0.11-0.67-0.19-1c-0.02-0.01-0.03-0.01-0.04,0
				c-0.08,0.33-0.12,0.67-0.19,1c-0.04,0.38-0.12,0.64-0.27,0.9c-0.31,0.49-0.84,0.81-1.39,0.8c-0.84-0.01-1.72,0.54-2.02,1.33
				c-0.17,0.38-0.18,0.84-0.11,1.19s0.11,0.71,0.21,1.06c0.1-0.35,0.14-0.71,0.22-1.06c0.04-0.36,0.13-0.63,0.29-0.88
				c0.33-0.49,0.85-0.77,1.43-0.76c0.88-0.01,1.71-0.6,1.99-1.4C97.45,247.06,97.44,246.59,97.37,246.26z M88.93,308.59
				c-0.07-0.35-0.11-0.7-0.21-1.06c-0.1,0.36-0.14,0.71-0.22,1.06c-0.04,0.38-0.11,0.64-0.27,0.9c-0.3,0.5-0.83,0.81-1.38,0.81
				c-0.85-0.02-1.72,0.53-2.03,1.33c-0.17,0.37-0.17,0.83-0.11,1.18c0.07,0.35,0.12,0.71,0.22,1.06c0.1-0.35,0.14-0.71,0.21-1.06
				c0.04-0.36,0.13-0.62,0.3-0.88c0.32-0.48,0.85-0.77,1.42-0.76c0.88,0,1.71-0.59,1.99-1.4C89.01,309.39,88.99,308.92,88.93,308.59
				z M132.86,354.98c-0.07-0.36-0.12-0.71-0.22-1.07c-0.09,0.36-0.14,0.71-0.21,1.07c-0.04,0.37-0.11,0.63-0.27,0.89
				c-0.3,0.5-0.84,0.81-1.38,0.81c-0.85-0.02-1.73,0.53-2.03,1.33c-0.17,0.37-0.18,0.83-0.11,1.18c0.07,0.35,0.11,0.71,0.21,1.06
				c0.1-0.35,0.15-0.71,0.22-1.06c0.04-0.36,0.13-0.62,0.29-0.88c0.33-0.48,0.85-0.77,1.43-0.76c0.88,0,1.71-0.59,1.99-1.39
				C132.94,355.77,132.92,355.3,132.86,354.98z M71.39,274.75c-0.07-0.36-0.12-0.71-0.21-1.07c-0.1,0.36-0.15,0.71-0.22,1.07
				c-0.04,0.37-0.11,0.63-0.27,0.89c-0.24,0.4-0.63,0.67-1.05,0.77c-0.15,0.3-0.29,0.61-0.43,0.92h0.11c0.88-0.01,1.71-0.6,1.99-1.4
				C71.47,275.55,71.45,275.08,71.39,274.75z M120.57,282.3c-0.07-0.35-0.11-0.71-0.21-1.06c-0.1,0.35-0.14,0.71-0.22,1.06
				c-0.04,0.38-0.11,0.64-0.27,0.9c-0.3,0.5-0.83,0.81-1.38,0.81c-0.85-0.02-1.72,0.53-2.02,1.32c-0.17,0.38-0.18,0.84-0.12,1.19
				c0.07,0.35,0.12,0.71,0.22,1.06c0.1-0.35,0.14-0.71,0.21-1.06c0.04-0.36,0.13-0.62,0.3-0.88c0.33-0.49,0.85-0.77,1.42-0.76
				c0.88-0.01,1.72-0.6,1.99-1.4C120.65,283.1,120.64,282.63,120.57,282.3z M75.12,345.42c-0.08-0.35-0.12-0.7-0.22-1.06
				c-0.1,0.36-0.14,0.71-0.21,1.06c-0.04,0.38-0.12,0.64-0.27,0.9c-0.31,0.5-0.84,0.81-1.39,0.81c-0.84-0.02-1.72,0.53-2.02,1.32
				c-0.17,0.38-0.18,0.84-0.11,1.19c0.07,0.35,0.11,0.71,0.21,1.06c0.1-0.35,0.14-0.71,0.22-1.06c0.04-0.36,0.13-0.62,0.29-0.88
				c0.33-0.49,0.85-0.77,1.43-0.76c0.88-0.01,1.71-0.6,1.99-1.4C75.2,346.22,75.18,345.75,75.12,345.42z M118.19,262.19
				c-0.28,0.23-0.53,0.35-0.83,0.42c-0.58,0.11-1.15-0.06-1.55-0.48c-0.62-0.61-1.63-0.78-2.39-0.41c-0.38,0.15-0.7,0.5-0.89,0.78
				c-0.2,0.3-0.42,0.58-0.6,0.9c0.32-0.18,0.6-0.4,0.9-0.6c0.3-0.24,0.53-0.37,0.83-0.44c0.56-0.14,1.16,0.01,1.55,0.4
				c0.58,0.61,1.59,0.84,2.37,0.5c0.38-0.15,0.71-0.47,0.91-0.76c0.2-0.3,0.42-0.58,0.6-0.91
				C118.77,261.78,118.49,262,118.19,262.19z M89.5,288.18c-0.28,0.23-0.53,0.35-0.83,0.41c-0.58,0.11-1.15-0.05-1.55-0.47
				c-0.62-0.62-1.63-0.79-2.39-0.42c-0.38,0.16-0.7,0.5-0.89,0.78c-0.2,0.3-0.42,0.58-0.6,0.9c0.32-0.18,0.6-0.4,0.9-0.6
				c0.3-0.23,0.53-0.36,0.83-0.44c0.56-0.13,1.16,0.02,1.55,0.41c0.58,0.61,1.59,0.84,2.37,0.49c0.38-0.15,0.71-0.46,0.91-0.76
				c0.2-0.3,0.42-0.58,0.6-0.9C90.08,287.76,89.8,287.98,89.5,288.18z M70.06,326.46c-0.28,0.23-0.53,0.35-0.82,0.42
				c-0.58,0.11-1.15-0.06-1.55-0.48c-0.63-0.61-1.63-0.78-2.4-0.41c-0.38,0.15-0.7,0.5-0.89,0.78c-0.2,0.3-0.42,0.58-0.6,0.9
				c0.32-0.18,0.6-0.4,0.91-0.6c0.29-0.24,0.52-0.37,0.82-0.44c0.57-0.14,1.17,0.01,1.55,0.4c0.59,0.61,1.6,0.84,2.37,0.5
				c0.39-0.15,0.72-0.47,0.92-0.76c0.2-0.3,0.42-0.58,0.6-0.91C70.65,326.04,70.37,326.27,70.06,326.46z M78.47,366.24
				c-0.29,0.23-0.54,0.35-0.83,0.42c-0.58,0.11-1.15-0.06-1.55-0.48c-0.63-0.61-1.63-0.78-2.4-0.41c-0.38,0.15-0.7,0.5-0.89,0.78
				c-0.19,0.3-0.41,0.58-0.6,0.9c0.33-0.18,0.61-0.4,0.91-0.6c0.29-0.24,0.53-0.37,0.82-0.44c0.57-0.14,1.17,0.01,1.55,0.4
				c0.59,0.61,1.6,0.84,2.37,0.5c0.39-0.15,0.72-0.47,0.92-0.76c0.2-0.3,0.42-0.58,0.6-0.91C79.05,365.82,78.77,366.05,78.47,366.24
				z M116.08,322.53c-0.29,0.22-0.54,0.35-0.83,0.41c-0.58,0.11-1.15-0.05-1.55-0.47c-0.63-0.62-1.63-0.79-2.4-0.42
				c-0.38,0.16-0.7,0.5-0.88,0.78c-0.2,0.3-0.42,0.58-0.61,0.9c0.33-0.18,0.61-0.4,0.91-0.6c0.29-0.23,0.53-0.36,0.82-0.44
				c0.57-0.14,1.17,0.02,1.55,0.41c0.59,0.61,1.6,0.84,2.37,0.49c0.39-0.15,0.72-0.47,0.92-0.76c0.2-0.3,0.42-0.58,0.6-0.9
				C116.66,322.11,116.38,322.33,116.08,322.53z M140.23,338.72c-0.24-0.08-0.46-0.22-0.64-0.41c-0.63-0.61-1.64-0.78-2.4-0.42
				c-0.38,0.16-0.7,0.51-0.89,0.78c-0.2,0.31-0.42,0.59-0.6,0.91c0.32-0.18,0.6-0.4,0.9-0.6c0.3-0.24,0.53-0.37,0.83-0.45
				c0.56-0.13,1.16,0.02,1.55,0.41c0.36,0.37,0.87,0.6,1.39,0.64L140.23,338.72z M98.42,350.4c-0.29,0.22-0.54,0.35-0.83,0.41
				c-0.58,0.11-1.15-0.05-1.55-0.47c-0.63-0.62-1.63-0.79-2.39-0.42c-0.38,0.16-0.71,0.5-0.89,0.78c-0.2,0.3-0.42,0.58-0.6,0.9
				c0.32-0.18,0.6-0.4,0.9-0.6c0.29-0.23,0.53-0.36,0.82-0.44c0.57-0.14,1.17,0.02,1.55,0.41c0.59,0.61,1.6,0.84,2.37,0.49
				c0.39-0.15,0.72-0.46,0.92-0.76c0.2-0.3,0.42-0.58,0.6-0.9C99,349.98,98.72,350.2,98.42,350.4z M58.35,355.88
				c-0.29,0.22-0.54,0.35-0.83,0.41c-0.58,0.11-1.15-0.05-1.55-0.47c-0.63-0.62-1.63-0.79-2.39-0.42c-0.39,0.16-0.71,0.5-0.89,0.78
				c-0.2,0.3-0.42,0.58-0.61,0.9c0.33-0.18,0.61-0.4,0.91-0.6c0.29-0.23,0.53-0.36,0.82-0.44c0.57-0.14,1.17,0.02,1.55,0.41
				c0.59,0.61,1.6,0.84,2.37,0.49c0.39-0.15,0.72-0.46,0.92-0.76s0.42-0.58,0.6-0.9C58.93,355.46,58.65,355.68,58.35,355.88z"/>
			<g>
				<path class="st9" d="M120.42,310.35c-4.51,0.5-9.03,1.16-13.42,2.33c-2.18,0.58-4.33,1.26-6.47,1.98
					c-1.07,0.36-2.14,0.69-3.22,1.01c-1.11,0.33-2.3,0.64-3.46,0.68c-0.1,0-0.1,0.16,0,0.16c1.13,0.02,2.21,0.04,3.33-0.09
					c1.07-0.12,2.13-0.36,3.17-0.63c2.22-0.57,4.42-1.24,6.63-1.83c4.47-1.19,8.94-2.38,13.48-3.24
					C120.68,310.68,120.63,310.32,120.42,310.35z"/>
				<path class="st9" d="M131.64,314.26c-3.71-0.35-7.5-0.52-11.23-0.44c-1.88,0.04-3.74,0.19-5.6,0.38
					c-0.89,0.09-1.78,0.2-2.67,0.33c-0.98,0.13-1.94,0.4-2.92,0.52c-0.1,0.01-0.1,0.17,0,0.16c0.93-0.08,1.87-0.02,2.8-0.05
					c0.93-0.03,1.87-0.07,2.8-0.1c1.87-0.06,3.74-0.1,5.61-0.18c3.74-0.16,7.47-0.28,11.22-0.31
					C131.85,314.57,131.83,314.28,131.64,314.26z"/>
			</g>
		</g>
		<g>
			<g>
				<path class="st13" d="M80.92,256.12C63,275.31,20.39,347.31,34.21,360.59c13.91,13.37,90.49-4.59,112.03-14.86
					c6.41-3.05-17.94-43-25.47-43.93c-6.27-0.78-38.32,13.89-39.25,12.04c-1.05-2.08,6.23-15.46,13.94-43.3
					C104.35,238.43,88.83,247.65,80.92,256.12z"/>
				<g>
					<path class="st13" d="M152.6,288.91c15.57-2.17,19.9-0.34,32.07-9.14c7.99-5.78,15.1-3.16,10.55,6.02
						c-7.45,15.02-26.95,22.04-34.42,22.53L152.6,288.91z"/>
					<g>
						<path class="st13" d="M111.24,303.9c0,0,17.5-9.72,33.86-13.67c11.32-2.73,36.6-5.94,60.79,19.01
							c5.74,5.92,9.72,18.42-3.16,12.16c-9.15-4.45-13.61-10.03-19.4-11.65c0,0,3.18,16.5-2.98,22.02
							c-2.75,2.47-10.41,9.02-17.11,13.27c0,0-1.32-1.21-2.77-2.98c0,0-6.23,4.61-17.97,3.49L111.24,303.9z"/>
					</g>
					<g>
						<path class="st13" d="M156.32,289.35c5.41,2.82,16.78,8.99,24.32,17.28c8.38,9.2,22.04,29.18,15.18,35.3
							c-5.03,4.48-10.91-2.69-10.91-2.69s3.91,9.45-1.52,12.51c-4.95,2.79-9.17-3.03-9.17-3.03s1.38,6.14-3.9,7.9
							c-6.35,2.12-8.21-11.09-16.5-14.5C151.96,341.35,156.32,289.35,156.32,289.35z"/>
						<g>
							<g>
								<path class="st9" d="M169.44,313.86c4.65,3.49,13.19,14.12,15.55,25.13c0.05,0.25-0.11,0.42-0.2,0.21
									c-5.18-11.57-12.2-21.31-15.43-25.26C169.31,313.88,169.39,313.82,169.44,313.86z"/>
							</g>
							<g>
								<path class="st9" d="M160.4,322.58c3.71,3.42,12.02,14.77,14.02,26.02c0.04,0.25-0.13,0.42-0.22,0.19
									c-4.91-12.32-10.91-22-13.9-26.14C160.27,322.6,160.35,322.54,160.4,322.58z"/>
							</g>
						</g>
					</g>
				</g>
				<path class="st9" d="M183.33,309.65c5.07,1.49,8.38,3.98,12.66,6.96c2.12,1.47,4.27,2.91,6.54,4.14
					c2.07,1.12,5.12,2.81,7.32,1.06c1.23-0.97,1.21-2.75,0.93-4.15c-0.31-1.57-0.91-3.08-1.84-4.38c-0.05-0.07,0.07-0.15,0.12-0.08
					c0.86,1.16,1.6,2.39,2.1,3.75c0.45,1.23,0.81,2.66,0.46,3.96c-0.75,2.8-4.05,3.17-6.38,2.4c-1.4-0.46-2.72-1.2-3.99-1.93
					c-1.23-0.71-2.43-1.47-3.6-2.26c-2.41-1.63-4.73-3.4-7.12-5.05c-2.63-1.82-4.45-2.71-7.26-4.23
					C183.16,309.77,183.23,309.62,183.33,309.65z"/>
				<path class="st9" d="M193.96,327.5c-1.31-2.89-8.42-14.95-10.73-17.73c-0.06-0.07,0.04-0.16,0.1-0.1
					c3.96,3.75,10.31,13.71,11.79,16.9c1.46,3.15,3.15,7.18,3.15,10.7c0,5.3-3.52,6.31-4.82,6.57c-1.55,0.31-3.12-0.02-4.51-0.74
					c-1.55-0.8-3.05-2.47-4.09-3.84c-0.05-0.07,0.04-0.17,0.1-0.1c1.84,2.09,4.89,4.15,7.77,3.77c1.25-0.16,2.52-0.73,3.28-1.77
					c0.9-1.22,0.97-2.82,0.85-4.27C196.58,333.6,195.31,330.48,193.96,327.5z"/>
				<path class="st9" d="M174.42,348.6c0.74,0.63,2.26,2.83,4.67,3.3c1.77,0.34,3.62,0.18,4.97-1.11c1.33-1.26,1.83-3.04,1.91-4.82
					c0.05-1.01-0.76-5.36-1.11-6.67c-0.03-0.1,0.1-0.15,0.13-0.05c0.77,2.34,1.59,4.89,1.59,7.18c0,1.91-0.6,3.95-2.03,5.29
					c-1.48,1.38-3.64,1.86-5.55,1.15c-0.94-0.35-3.93-2.27-4.79-4.15C174.2,348.67,174.39,348.57,174.42,348.6z"/>
				<path class="st9" d="M154.32,341.16c0.83,0.49,1.55,1.23,2.25,1.9c0.74,0.72,1.46,1.46,2.16,2.22c1.4,1.52,2.61,3.25,3.67,5.02
					c1.07,1.8,2.06,3.8,3.8,5.05c1.71,1.22,4.06,1.42,5.8,0.14c0.91-0.66,1.52-1.61,1.81-2.69c0.3-1.11,0.5-2.47,0.34-3.62
					c-0.01-0.1,0.13-0.12,0.14-0.02c0.09,1.12,0.39,2.15,0.26,3.29c-0.11,1-0.44,1.98-1.04,2.79c-1.23,1.66-3.41,2.39-5.41,2.02
					c-2.21-0.41-3.84-2.07-5.04-3.87c-1.34-2.01-2.44-4.14-3.87-6.09c-0.75-1.03-1.49-2.06-2.32-3.03
					c-0.86-1.01-1.89-1.91-2.68-2.97C154.14,341.23,154.22,341.1,154.32,341.16z"/>
				<path class="st9" d="M148.12,345.68c1.67-0.14,5.51-0.78,8.54-1.77c0.09-0.03,0.21,0.22,0.13,0.27
					c-1.13,0.62-3.5,1.25-4.21,1.39c-1.42,0.29-2.98,0.42-4.44,0.27C148.06,345.83,148.02,345.69,148.12,345.68z"/>
				<path class="st9" d="M52.52,327.85c4.47-3.05,9.24-5.68,14.1-8.06c4.81-2.35,9.86-4.18,14.96-5.8c2.91-0.92,5.86-1.71,8.81-2.51
					c0.09-0.02,0.12,0.11,0.04,0.14c-5.15,1.54-10.18,3.55-15.11,5.67c-4.91,2.12-9.77,4.32-14.6,6.62c-2.73,1.3-5.4,2.73-8.09,4.12
					C52.5,328.1,52.41,327.92,52.52,327.85z"/>
			</g>
			<g>
				<path class="st3" d="M44.23,301.38l43.49-1.44c0,0,8.09-21.47,11.18-40.56c3.08-19.09-12.56-13.27-28.89,7.18
					C53.67,287,44.23,301.38,44.23,301.38z"/>
				<path class="st6" d="M55.14,289.08c-0.28,0.23-0.54,0.35-0.83,0.41c-0.55,0.11-1.09-0.03-1.48-0.41
					c-0.17,0.24-0.35,0.48-0.51,0.72c0.6,0.5,1.5,0.66,2.2,0.34c0.39-0.14,0.72-0.46,0.92-0.75c0.2-0.31,0.42-0.59,0.6-0.91
					C55.72,288.66,55.44,288.88,55.14,289.08z M89.5,288.18c-0.28,0.23-0.53,0.35-0.83,0.41c-0.58,0.11-1.15-0.05-1.55-0.47
					c-0.62-0.62-1.63-0.79-2.39-0.42c-0.38,0.16-0.7,0.5-0.89,0.78c-0.2,0.3-0.42,0.58-0.6,0.9c0.32-0.18,0.6-0.4,0.9-0.6
					c0.3-0.23,0.53-0.36,0.83-0.44c0.56-0.13,1.16,0.02,1.55,0.41c0.58,0.61,1.59,0.84,2.37,0.49c0.38-0.15,0.71-0.46,0.91-0.76
					c0.2-0.3,0.42-0.58,0.6-0.9C90.08,287.76,89.8,287.98,89.5,288.18z M71.39,274.75c-0.07-0.36-0.12-0.71-0.21-1.07
					c-0.1,0.36-0.15,0.71-0.22,1.07c-0.04,0.37-0.11,0.63-0.27,0.89c-0.3,0.5-0.84,0.81-1.38,0.81c-0.85-0.01-1.73,0.54-2.03,1.33
					c-0.17,0.38-0.18,0.84-0.11,1.18c0.07,0.36,0.12,0.71,0.22,1.07c0.09-0.36,0.14-0.71,0.21-1.07c0.04-0.36,0.13-0.62,0.3-0.87
					c0.32-0.49,0.84-0.78,1.42-0.76c0.88-0.01,1.71-0.6,1.99-1.4C71.47,275.55,71.45,275.08,71.39,274.75z M95.63,247.92h-0.01
					c-0.11,0.03-0.22,0.04-0.33,0.04c-0.84-0.01-1.72,0.54-2.02,1.33c-0.17,0.38-0.18,0.84-0.11,1.19s0.11,0.71,0.21,1.06
					c0.1-0.35,0.14-0.71,0.22-1.06c0.04-0.36,0.13-0.63,0.29-0.88c0.33-0.49,0.85-0.77,1.43-0.76c0.49-0.01,0.97-0.19,1.34-0.5
					C96.34,248.16,96,248.02,95.63,247.92z M75.57,260.11c0.36-0.16,0.65-0.47,0.83-0.74c0.1-0.15,0.21-0.3,0.31-0.44
					C76.33,259.31,75.95,259.71,75.57,260.11z M66.53,299.64c-0.38-0.16-0.85-0.14-1.18-0.08c-0.36,0.07-0.71,0.12-1.07,0.21
					c0.36,0.1,0.71,0.15,1.07,0.22c0.37,0.04,0.63,0.11,0.89,0.27c0.17,0.1,0.31,0.23,0.43,0.37l0.97-0.03v-0.01
					C67.38,300.15,67,299.8,66.53,299.64z M95.74,272.28c-0.01-0.88-0.6-1.71-1.4-1.99c-0.38-0.16-0.85-0.14-1.18-0.08
					c-0.36,0.07-0.71,0.12-1.06,0.22c0.35,0.09,0.7,0.14,1.06,0.21c0.37,0.04,0.63,0.11,0.89,0.27c0.5,0.3,0.82,0.84,0.81,1.38
					c-0.01,0.69,0.35,1.4,0.91,1.79c0.07-0.3,0.15-0.59,0.22-0.89C95.82,272.93,95.73,272.61,95.74,272.28z"/>
				<g>
					<path class="st9" d="M85.92,299.79c0.23,0,1.76-0.27,1.77-0.27c0.11-0.57,2.59-9.54,3.24-11.49c1.33-3.98,2.89-7.89,4.4-11.8
						c0.05-0.12,0.24-0.07,0.2,0.06c-0.98,3.37-1.9,6.75-2.91,10.11c0.3-0.48,0.6-0.96,0.89-1.44c0.59-1,1.1-2.03,1.65-3.05
						c0.05-0.09,0.19-0.02,0.16,0.07c-0.43,1.41-1.14,2.75-1.92,4c-0.34,0.54-0.73,1.05-1.13,1.54c-0.09,0.28-0.17,0.56-0.25,0.84
						c-0.62,1.96-3.8,11.68-3.96,11.69c-0.04,0-1.61,0.04-2.1,0.04C85.85,300.08,85.8,299.79,85.92,299.79z"/>
					<path class="st9" d="M51.27,292.96c9.38-0.7,18.82-0.75,28.24-0.61c2.66,0.04,5.33,0.14,7.99,0.31c0.07,0,0.09,0.11,0.01,0.12
						c-4.69,0.25-9.39,0.31-14.09,0.4c-4.71,0.09-9.43,0.14-14.15,0.09c-2.66-0.03-5.32-0.05-7.98-0.13
						C51.17,293.13,51.15,292.96,51.27,292.96z"/>
				</g>
			</g>
		</g>
		<g>
			<g>
				<g>
					<path class="st13" d="M96.01,248.04c0.17,1.9,7.23,15.09,15.69,15.9c2.76,0.26,4.84-14.72,4.84-14.72l0.41-1.07l5.68-14.99
						l-16.52-14.28l-2.41-1.92c0,0-1.28,4.2-2.83,9.45c-0.07,0.24-0.15,0.49-0.22,0.75c-0.1,0.29-0.19,0.57-0.26,0.85
						c-0.24,0.78-0.48,1.58-0.71,2.38c-0.17,0.61-0.35,1.2-0.51,1.85c-0.18,0.64-0.33,1.27-0.51,1.92
						C97.06,240.54,95.95,247.24,96.01,248.04z"/>
					<path class="st9" d="M100.87,226.42c2.67,12.96,11.79,19.4,16.07,21.74l5.68-14.99l-16.52-14.28l-2.41-1.92
						C103.71,216.97,102.42,221.17,100.87,226.42z"/>
				</g>
				<g>
					<path class="st13" d="M142.86,202.15c7.67,27.07-7.68,34.72-13.52,36.36c-5.3,1.5-23.54,5.91-33.96-20.22
						c-10.42-26.13-0.26-38.25,11.68-42.31C119,171.93,135.19,175.09,142.86,202.15z"/>
					<g>
						<path class="st9" d="M137.03,198.23c-0.66,0.09-1.28,0.07-1.94,0.09c-0.75,0.03-1.34,0.12-2-0.29
							c-0.35-0.22-0.49-0.82-0.31-1.18c0.42-0.85,1.33-1.11,2.22-1.18c0.97-0.07,1.74,0.12,2.54,0.67
							C138.32,196.89,137.9,198.11,137.03,198.23z"/>
						<path class="st9" d="M120.33,206.57c0.64-0.17,1.21-0.44,1.82-0.68c0.7-0.27,1.28-0.41,1.73-1.04
							c0.24-0.34,0.13-0.94-0.18-1.21c-0.72-0.62-1.65-0.5-2.5-0.22c-0.92,0.31-1.56,0.79-2.07,1.61
							C118.62,205.84,119.49,206.8,120.33,206.57z"/>
						<g>
							<g>
								<path class="st9" d="M125.01,209.34c-0.03-0.07-0.12,0.13-0.1,0.2c0.58,1.83,0.94,4.01-0.55,5.1
									c-0.05,0.03-0.01,0.12,0.04,0.1C126.36,213.88,125.86,210.98,125.01,209.34z"/>
								<path class="st9" d="M122.82,207.89c-3.03,0.62-1.57,6.63,1.24,6.05C126.82,213.38,125.36,207.37,122.82,207.89z"/>
							</g>
							<path class="st9" d="M121.72,208.49c-0.44,0.47-0.81,1.19-1.43,1.41c-0.71,0.25-1.42-0.24-2.05-0.73
								c-0.07-0.05-0.1,0.01-0.09,0.09c0.26,1.16,0.99,2.23,2.27,2.1c1.16-0.12,1.72-1.33,1.73-2.56
								C122.16,208.57,121.89,208.3,121.72,208.49z"/>
						</g>
						<g>
							<g>
								<path class="st9" d="M135.33,206.01c0-0.07,0.17,0.05,0.18,0.13c0.38,1.88,1.13,3.97,2.96,4.19
									c0.06,0.01,0.07,0.1,0.01,0.11C136.36,210.63,135.39,207.85,135.33,206.01z"/>
								<path class="st9" d="M136.54,203.67c2.95-0.93,4.59,5.03,1.86,5.89C135.72,210.41,134.07,204.45,136.54,203.67z"/>
							</g>
							<path class="st9" d="M137.89,203.72c0.56,0.19,1.18,0.63,1.76,0.51c0.66-0.14,0.97-0.92,1.21-1.65
								c0.03-0.08,0.09-0.04,0.11,0.04c0.35,1.13,0.3,2.42-0.74,2.94c-0.94,0.48-1.95-0.3-2.53-1.36
								C137.6,204.01,137.67,203.64,137.89,203.72z"/>
						</g>
						<path class="st9" d="M128.65,223.25c0.54,0.35,1.1,0.87,1.8,0.79c0.67-0.07,1.37-0.52,1.93-0.87c0.05-0.03,0.13,0.02,0.1,0.08
							c-0.35,0.82-1.29,1.47-2.19,1.49c-0.88,0.02-1.44-0.64-1.8-1.37C128.43,223.27,128.57,223.2,128.65,223.25z"/>
						<g>
							<path class="st9" d="M134.63,215.56c0,0,1.09,2.67,1.43,3.98c0.03,0.12-4.49,2.32-7.39-0.36c-0.12-0.11,0.01-0.28,0.15-0.23
								c2.05,0.83,4.04,0.67,6.09,0.18c0-0.39-2.02-4.52-1.82-4.59c0.7-0.24,2.23-0.12,3.14-0.09c-2.11-5.64-5.11-10.89-7.13-16.53
								c-0.07-0.2,0.21-0.34,0.32-0.17c3.53,5.28,6.1,11.71,8.43,17.48C138.15,215.94,135.21,215.64,134.63,215.56z"/>
						</g>
					</g>
					<g>
						<path class="st9" d="M120.17,178.99c0,0,1.8,3.98,0.86,7.23c-1.92,6.68-9.64,6.3-11.78,9.17c-2,2.69-0.37,7.3-2.15,9.96
							c-2.46,3.68-6.74,3.13-6.87,5.35c-0.13,2.22-0.41,9.26-2.99,10.59c-2.58,1.32-22.68-41.82,13.17-46.38
							c0,0,4.57-2.87,12.77-0.27c9.51,3.01,15.47,16.45,15.47,16.45s-0.66-0.66-2.06-1.53c-1.97-1.23-2.87-2.52-4.3-3.29
							c-2.24-1.21-3.23-0.44-5.53-1.6C123.25,182.9,120.17,178.99,120.17,178.99z"/>
						<path class="st9" d="M119.29,177.11c0.85,1.68,1.52,3.46,1.95,5.27c0.45,1.79,0.67,3.71,0.13,5.42
							c-0.56,1.67-1.99,2.98-3.55,3.86c-1.59,0.91-3.43,1.4-5.13,2.43c-0.82,0.54-1.62,1.23-2.09,2.19
							c-0.46,0.95-0.54,1.97-0.59,2.91c-0.07,1.89-0.15,3.75-1.15,5.26c-0.97,1.5-2.6,2.58-4.44,2.81c-1.79,0.3-3.86,0.13-5.48,1.22
							c1.7-0.95,3.64-0.61,5.54-0.79c1.94-0.14,3.8-1.23,4.95-2.85c1.22-1.65,1.28-3.77,1.39-5.59c0.06-0.93,0.16-1.84,0.54-2.59
							c0.36-0.74,1.05-1.34,1.8-1.81c1.51-0.96,3.37-1.5,5.05-2.48c0.84-0.49,1.64-1.09,2.3-1.82c0.66-0.71,1.27-1.57,1.5-2.55
							c0.51-1.95,0.17-3.92-0.37-5.74C121.08,180.45,120.27,178.72,119.29,177.11z"/>
						<path class="st9" d="M120.25,178.62c0.63,1.64,1.5,3.18,2.55,4.62c1.04,1.44,2.49,2.69,4.23,3.32
							c0.87,0.33,1.82,0.41,2.62,0.54c0.77,0.14,1.62,0.46,2.14,0.97c0.57,0.58,1.15,1.33,1.9,1.84c0.75,0.51,1.61,0.82,2.48,0.94
							c-0.82-0.31-1.6-0.7-2.21-1.28c-0.65-0.55-1.09-1.25-1.67-1.97c-0.68-0.78-1.57-1.08-2.48-1.31
							c-0.91-0.18-1.72-0.25-2.48-0.55c-1.55-0.58-2.87-1.65-3.98-2.95C122.22,181.5,121.22,180.07,120.25,178.62z"/>
					</g>
					<path class="st3" d="M92.73,213.51c0,0-10.82-20.59,0.88-32.54c12.13-12.39,29.04-7.84,29.04-7.84s-18.39,1.15-26,11.11
						C87.78,195.85,92.73,213.51,92.73,213.51z"/>
					<g>
						<path class="st7" d="M122.5,219.95c-3.92,0.63-7.94-1.44-9.6-5.25c-1.96-4.51,0.12-9.77,4.62-11.72
							c4.51-1.96,9.76,0.12,11.72,4.62l0,0c1.96,4.51-0.12,9.76-4.62,11.72C123.93,219.63,123.22,219.83,122.5,219.95z
							 M119.85,203.53c-0.62,0.1-1.24,0.28-1.84,0.54c-3.9,1.69-5.7,6.25-4.01,10.16c1.7,3.9,6.25,5.7,10.15,4.01
							c3.9-1.7,5.7-6.25,4.01-10.16C126.73,204.78,123.25,202.98,119.85,203.53z"/>
						<path class="st7" d="M142.14,214.25c-3.37,0.54-6.98-2.41-8.25-6.88c-0.64-2.26-0.6-4.57,0.11-6.51
							c0.73-2.01,2.1-3.38,3.84-3.88c1.74-0.5,3.62-0.04,5.3,1.28c1.63,1.28,2.87,3.22,3.51,5.48c1.34,4.73-0.42,9.38-3.94,10.39
							C142.52,214.18,142.33,214.22,142.14,214.25z M138.6,198.03c-0.15,0.02-0.3,0.06-0.44,0.1c-1.36,0.39-2.44,1.5-3.04,3.14
							c-0.62,1.71-0.65,3.75-0.08,5.77c1.17,4.09,4.45,6.76,7.35,5.93c2.89-0.82,4.29-4.82,3.12-8.91
							c-0.57-2.02-1.68-3.74-3.11-4.87C141.17,198.23,139.84,197.83,138.6,198.03z"/>
						<path class="st7" d="M129.25,208.68l-0.99-0.67c0.99-1.46,3.58-3.78,6.31-2.14l-0.61,1.02
							C131.51,205.41,129.34,208.54,129.25,208.68z"/>
						<path class="st7" d="M90.14,222.08l-1.17-0.24c0.11-0.54,1.15-5.35,3.59-6.5c2.28-1.06,19.6-4.32,20.27-4.45l0.22,1.17
							c-4.52,0.84-18.21,3.53-19.98,4.35C91.46,217.18,90.41,220.76,90.14,222.08z"/>
					</g>
					<g>
						<g>
							<path class="st13" d="M99.8,217.11c0,0-7.68-7.47-11.19-4.57c-3.5,2.9,3.43,14.53,8.35,15.36c4.92,0.83,5.78-3.71,5.78-3.71
								L99.8,217.11z"/>
							<path class="st9" d="M90.68,215.83c-0.08,0.01-0.07,0.11,0,0.13c3.47,0.69,5.74,3.35,7.52,6.22
								c-1.19-1.01-2.62-1.41-3.99,0.04c-0.07,0.08,0.03,0.19,0.12,0.16c1.27-0.54,2.26-0.49,3.36,0.4
								c0.77,0.63,1.39,1.49,2.01,2.27c0.21,0.26,0.7,0.01,0.52-0.31c-0.01-0.02-0.03-0.05-0.04-0.07
								C99.46,220.53,95.17,215.4,90.68,215.83z"/>
						</g>
					</g>
				</g>
			</g>
			<path class="st13" d="M82.06,253.94c0,0,19.4,13.92,30.49,12.47c11.08-1.44,10.09-12.17,10.09-12.17s-11.1-9.72-24.19-9.1
				C88.97,245.58,82.06,253.94,82.06,253.94z"/>
		</g>
	</g>
	<polygon class="st9" points="13.47,368.07 93.26,367.83 173.06,367.74 332.65,367.57 492.23,367.74 572.03,367.82 651.82,368.07 
		572.03,368.31 492.23,368.4 332.65,368.57 173.06,368.4 93.26,368.31 	"/>
	<g>
		<g>
			<rect x="140.38" y="365.56" class="st14" width="111.19" height="4.99"/>
			<rect x="140.38" y="365.56" class="st9" width="55.97" height="4.99"/>
		</g>
		<g>
			<g>
				<polygon class="st2" points="195.05,370.54 303.41,370.54 318.73,296.94 210.36,296.94 				"/>
			</g>
			<path class="st6" d="M248.49,335.38c-0.42,3.99,2.47,7.22,6.46,7.22s7.56-3.23,7.98-7.22c0.42-3.99-2.47-7.22-6.46-7.22
				C252.48,328.16,248.91,331.39,248.49,335.38z"/>
		</g>
	</g>
	<g>
		<g>
			<rect x="412.02" y="365.56" class="st14" width="111.19" height="4.99"/>
			<rect x="467.25" y="365.56" class="st9" width="55.97" height="4.99"/>
		</g>
		<g>
			<g>
				<polygon class="st2" points="468.55,370.54 360.18,370.54 344.87,296.94 453.24,296.94 				"/>
			</g>
			<path class="st6" d="M415.11,335.38c0.42,3.99-2.47,7.22-6.46,7.22c-3.99,0-7.56-3.23-7.98-7.22c-0.42-3.99,2.47-7.22,6.46-7.22
				C411.12,328.16,414.69,331.39,415.11,335.38z"/>
		</g>
	</g>
	<g>
		<path class="st3" d="M453.46,278.83c-9.68,0-17.26-20.31-17.26-46.24c0-25.93,7.58-46.24,17.26-46.24
			c9.68,0,17.26,20.31,17.26,46.24C470.71,258.52,463.13,278.83,453.46,278.83z M453.46,189.35c-6.89,0-14.26,17.37-14.26,43.24
			c0,25.86,7.37,43.24,14.26,43.24c6.89,0,14.26-17.37,14.26-43.24C467.71,206.73,460.34,189.35,453.46,189.35z"/>
		<path class="st3" d="M424.5,260.29c-5.5,0-9.35-1.56-11.09-4.58c-2.45-4.24-0.34-10.61,5.94-17.93
			c5.94-6.93,14.99-14.08,25.48-20.14c10.49-6.06,21.21-10.32,30.18-12c9.48-1.77,16.05-0.42,18.49,3.82
			c2.45,4.24,0.34,10.6-5.94,17.93c-5.94,6.93-14.99,14.08-25.48,20.14c-10.49,6.06-21.21,10.32-30.18,12
			C429.19,260.04,426.71,260.29,424.5,260.29z M482.5,207.88c-2.03,0-4.36,0.24-6.94,0.72c-8.64,1.62-19.02,5.75-29.23,11.65
			c-10.21,5.89-18.98,12.81-24.7,19.49c-5.31,6.19-7.35,11.47-5.62,14.48c1.74,3.01,7.33,3.87,15.34,2.37
			c8.64-1.62,19.02-5.75,29.23-11.65c10.21-5.89,18.98-12.82,24.7-19.49c5.31-6.19,7.35-11.47,5.62-14.47
			C489.72,208.94,486.77,207.88,482.5,207.88z"/>
		<path class="st3" d="M482.41,260.29c-2.21,0-4.69-0.25-7.4-0.76c-8.97-1.68-19.69-5.94-30.18-12
			c-10.49-6.06-19.54-13.21-25.48-20.14c-6.28-7.32-8.38-13.69-5.94-17.93c2.45-4.24,9.02-5.59,18.49-3.82
			c8.97,1.68,19.69,5.94,30.18,12c10.49,6.06,19.54,13.21,25.48,20.14c6.28,7.32,8.38,13.69,5.94,17.93
			C491.75,258.74,487.91,260.29,482.41,260.29z M424.41,207.88c-4.28,0-7.23,1.05-8.41,3.09c-1.74,3.01,0.31,8.28,5.62,14.47
			c5.72,6.68,14.49,13.6,24.7,19.49c10.21,5.89,20.59,10.03,29.23,11.65c8.02,1.5,13.61,0.63,15.34-2.37
			c1.74-3.01-0.31-8.28-5.62-14.48c-5.72-6.68-14.49-13.6-24.7-19.49c-10.21-5.89-20.59-10.03-29.23-11.65
			C428.77,208.12,426.45,207.88,424.41,207.88z"/>
		<circle class="st3" cx="453.46" cy="232.59" r="6.79"/>
	</g>
	<g>
		<polygon class="st3" points="253.31,199.12 206.88,276.02 160.45,199.12 195,199.12 206.88,221.45 218.77,199.12 		"/>
		<polygon class="st15" points="235.51,199.12 206.88,247.9 178.25,199.12 195,199.12 206.88,221.45 218.77,199.12 		"/>
	</g>
	<g>
		<g>
			<polygon class="st3" points="383.59,119.75 371.75,186.58 332.65,198.99 293.54,186.58 281.7,119.75 332.65,94.88 			"/>
		</g>
		<g>
			<polygon class="st10" points="332.65,193.67 332.65,100.2 378.33,122.5 367.71,182.43 			"/>
		</g>
		<g>
			<path class="st6" d="M328.17,120.17h9.03l19.98,52.53h-10.51l-4.88-13.1h-18.35l-4.81,13.1h-10.51L328.17,120.17z M339.93,152.43
				l-7.25-20.64l-7.55,20.64H339.93z"/>
		</g>
	</g>
	<g>
		<polygon class="st9" points="373.81,203.83 378.2,214.44 373.81,216.25 369.4,205.58 362.15,211.2 362.15,181.33 383.06,202.45 		
			"/>
		<g>
			<path class="st9" d="M362.15,178.07c-0.21-0.5-0.26-1-0.27-1.5c0.01-0.5,0.05-1,0.27-1.5c0.21,0.5,0.26,1,0.27,1.5
				C362.41,177.07,362.36,177.57,362.15,178.07z"/>
			<path class="st9" d="M359.56,179.14c-0.5-0.21-0.89-0.53-1.25-0.87c-0.35-0.36-0.67-0.75-0.87-1.25c0.5,0.21,0.89,0.53,1.25,0.87
				C359.04,178.25,359.36,178.64,359.56,179.14z"/>
			<path class="st9" d="M358.49,181.73c-0.5,0.21-1,0.26-1.5,0.27c-0.5-0.01-1-0.05-1.5-0.27c0.5-0.21,1-0.26,1.5-0.27
				C357.49,181.47,357.99,181.52,358.49,181.73z"/>
			<path class="st9" d="M359.56,184.32c-0.21,0.5-0.53,0.89-0.87,1.25c-0.36,0.35-0.75,0.67-1.25,0.87c0.2-0.5,0.53-0.89,0.87-1.25
				C358.67,184.84,359.06,184.52,359.56,184.32z"/>
			<path class="st9" d="M365.81,181.73c0.5-0.21,1-0.26,1.5-0.27c0.5,0.01,1,0.05,1.5,0.27c-0.5,0.21-1,0.26-1.5,0.27
				C366.81,181.99,366.31,181.94,365.81,181.73z"/>
			<path class="st9" d="M364.74,179.14c0.21-0.5,0.53-0.89,0.87-1.25c0.36-0.35,0.75-0.67,1.25-0.87c-0.2,0.5-0.53,0.89-0.87,1.25
				C365.63,178.61,365.24,178.94,364.74,179.14z"/>
		</g>
	</g>
</g>
</svg>
